<?xml version="1.0" encoding="utf-8" ?>
<svg baseProfile="full" height="100%" version="1.1" viewBox="0,0,1000,240" width="100%" xmlns="http://www.w3.org/2000/svg" xmlns:ev="http://www.w3.org/2001/xml-events" xmlns:xlink="http://www.w3.org/1999/xlink"><defs /><rect fill="white" height="240" width="1000" x="0" y="0" /><path d="M0,0 M490.5659484863281,56.70775604248047 L490.5646057128906,56.33830642700195 L490.4573974609375,55.74692153930664 L490.1539611816406,55.026649475097656 L489.5745544433594,54.3629150390625 L488.687255859375,53.85914993286133 L487.5032043457031,53.62309265136719 L486.0631408691406,53.72151565551758 L484.45245361328125,54.219879150390625 L482.77679443359375,55.14063262939453 L481.1788024902344,56.45669174194336 L479.794677734375,58.089759826660156 L478.74969482421875,59.89447784423828 L478.166015625,61.675079345703125 L478.12457275390625,63.21383285522461 L478.6287536621094,64.31916046142578 L479.65582275390625,64.86259460449219 L481.1214599609375,64.78206634521484 L482.90814208984375,64.0990982055664 L484.8876647949219,62.90837478637695 L486.8877868652344,61.34878921508789 L488.7247314453125,59.598270416259766 L490.2419128417969,57.86439514160156 L491.34661865234375,56.328857421875 L492.0231628417969,55.14150619506836 L492.33135986328125,54.3904914855957 L492.36163330078125,54.12287902832031 L492.1887512207031,54.349246978759766 L491.85076904296875,55.09543991088867 L491.39862060546875,56.33207321166992 L490.88983154296875,57.93954086303711 L490.426025390625,59.72964859008789 L490.167724609375,61.465938568115234 L490.21392822265625,62.90580749511719 L490.5722351074219,63.912540435791016 L491.0328369140625,64.46876525878906 L491.40350341796875,64.675537109375 M496.58184814453125,55.012508392333984 L496.607666015625,55.163330078125 L496.6292724609375,55.59477615356445 L496.5980224609375,56.418514251708984 L496.4648132324219,57.63755416870117 L496.2034912109375,59.132686614990234 L495.8585205078125,60.68229675292969 L495.4959716796875,62.0603141784668 L495.189697265625,63.09718322753906 L494.990234375,63.68505096435547 L494.93829345703125,63.77376174926758 L495.0571594238281,63.33902359008789 L495.42315673828125,62.376708984375 L496.07427978515625,60.9744758605957 L496.9983825683594,59.31367874145508 L498.14080810546875,57.62446975708008 L499.40960693359375,56.13078308105469 L500.7077941894531,54.984901428222656 L501.99908447265625,54.26335906982422 L503.24237060546875,53.9934196472168 L504.39520263671875,54.17791748046875 L505.3913269042969,54.80160140991211 L506.140380859375,55.824989318847656 L506.5625,57.17262268066406 L506.66607666015625,58.76185989379883 L506.53314208984375,60.440895080566406 L506.315673828125,62.042747497558594 L506.1395263671875,63.25777053833008 L506.0546875,63.9700813293457 M517.3885498046875,58.617149353027344 L517.329833984375,58.2711296081543 L517.1651000976562,57.75373840332031 L516.830078125,57.18666076660156 L516.2476806640625,56.7619514465332 L515.3433837890625,56.56718063354492 L514.1163330078125,56.67764663696289 L512.6751708984375,57.117149353027344 L511.1914978027344,57.87394332885742 L509.91754150390625,58.87661361694336 L509.06536865234375,59.97789764404297 L508.7733154296875,61.01111602783203 L509.0802307128906,61.82571029663086 L509.94329833984375,62.30171585083008 L511.2423095703125,62.370033264160156 L512.8237915039062,62.03307342529297 L514.4972534179688,61.33975601196289 L516.081298828125,60.38479232788086 L517.3927001953125,59.301307678222656 L518.3251342773438,58.250526428222656 L518.8714599609375,57.35405349731445 L519.1018676757812,56.70612335205078 L519.1160278320312,56.363548278808594 L519.007080078125,56.35987091064453 L518.8040771484375,56.74209976196289 L518.5343017578125,57.57537841796875 L518.2550048828125,58.835205078125 L518.0350952148438,60.446781158447266 L517.90283203125,62.31312942504883 L517.828857421875,64.34169006347656 L517.7052612304688,66.45896911621094 L517.4140014648438,68.59645080566406 L516.87744140625,70.62957763671875 L516.072998046875,72.40372467041016 L515.0130615234375,73.77983856201172 L513.7681884765625,74.68897247314453 L512.39990234375,75.04662322998047 L511.0244140625,74.86103820800781 L509.7665100097656,74.2225112915039 L508.8421630859375,73.48323059082031 L508.3121337890625,72.90837860107422 M525.9385986328125,45.0 L525.929443359375,45.03974914550781 L525.8687744140625,45.24956512451172 L525.7088623046875,45.7535400390625 L525.4234619140625,46.639503479003906 L525.0318603515625,47.915802001953125 L524.57666015625,49.53411865234375 L524.10693359375,51.42033767700195 L523.6649169921875,53.485206604003906 L523.2845458984375,55.621124267578125 L523.000732421875,57.71028137207031 L522.8609619140625,59.634952545166016 L522.9561767578125,61.271690368652344 L523.3255004882812,62.52728271484375 L523.9537353515625,63.3630256652832 L524.5991821289062,63.80746078491211 L525.0731201171875,63.972023010253906 M536.6779174804688,58.165924072265625 L536.5650634765625,57.80149841308594 L536.3170166015625,57.24107360839844 L535.869384765625,56.59822082519531 L535.1766967773438,56.080692291259766 L534.1806640625,55.79220962524414 L532.8824462890625,55.82207107543945 L531.3731689453125,56.21773910522461 L529.7971801757812,56.99131393432617 L528.347412109375,58.07964324951172 L527.224609375,59.36243438720703 L526.5687866210938,60.675994873046875 L526.4599609375,61.85346984863281 L526.9273071289062,62.75796890258789 L527.900390625,63.273502349853516 L529.2722778320312,63.319793701171875 L530.909423828125,62.884090423583984 L532.6549072265625,62.01786804199219 L534.3570556640625,60.826507568359375 L535.8899536132812,59.482078552246094 L537.124755859375,58.183929443359375 L537.9883422851562,57.09761047363281 L538.4815673828125,56.325233459472656 L538.6746826171875,55.892799377441406 L538.677978515625,55.772979736328125 L538.5978393554688,55.96720504760742 L538.4929809570312,56.5128059387207 L538.392578125,57.40928268432617 L538.33935546875,58.59805679321289 L538.3680419921875,59.95635986328125 L538.5095825195312,61.33672332763672 L538.7601318359375,62.63065719604492 L539.1057739257812,63.74409866333008 L539.5091552734375,64.5852279663086 L539.9540405273438,65.10985565185547 L540.3280639648438,65.35218048095703 L540.5762939453125,65.40615844726562 M545.4219970703125,56.627159118652344 L545.4503173828125,56.835506439208984 L545.4744873046875,57.31974411010742 L545.458251953125,58.135398864746094 L545.361083984375,59.232521057128906 L545.1871948242188,60.50717544555664 L544.9833374023438,61.822181701660156 L544.814453125,63.060523986816406 L544.7744140625,64.05909729003906 L544.9034423828125,64.68113708496094 L545.18310546875,64.85183715820312 L545.4827270507812,64.73150634765625 L545.70703125,64.51091003417969 M546.207763671875,49.595890045166016 L546.2083129882812,49.32646942138672 L546.279052734375,49.01270294189453 L546.4224243164062,48.75747299194336 L546.633544921875,48.70208740234375 L546.84326171875,48.81309509277344 L547.049072265625,49.0572509765625 L547.2105102539062,49.30632781982422 L547.3232421875,49.498722076416016 M558.9718017578125,55.690757751464844 L558.5623779296875,55.55036926269531 L557.7628173828125,55.371177673339844 L556.5545043945312,55.2397346496582 L555.0910034179688,55.2535400390625 L553.55517578125,55.42593002319336 L552.2026977539062,55.75053405761719 L551.2584228515625,56.1974983215332 L550.9080200195312,56.74361038208008 L551.2413330078125,57.38669967651367 L552.2598876953125,58.102081298828125 L553.883056640625,58.86488723754883 L555.95166015625,59.673301696777344 L558.23486328125,60.531063079833984 L560.4766845703125,61.429588317871094 L562.456298828125,62.355865478515625 L563.99267578125,63.247406005859375 L564.9962768554688,64.04810333251953 L565.4058837890625,64.71399688720703 L565.2012939453125,65.2266845703125 L564.37060546875,65.58370971679688 L562.951416015625,65.80075073242188 L561.02197265625,65.86909484863281 L558.7636108398438,65.7981948852539 L556.3486938476562,65.58118438720703 L554.01416015625,65.24728393554688 L551.9564819335938,64.85237884521484 L550.483642578125,64.5178451538086 L549.6583251953125,64.3043212890625 " fill="none" stroke="black" stroke-linecap="round" stroke-width="1" /><path d="M0,0 M491.6983642578125,108.55592346191406 L491.5599060058594,108.10481262207031 L491.3022155761719,107.42516326904297 L490.8849182128906,106.653564453125 L490.285400390625,106.0231704711914 L489.4466857910156,105.62290954589844 L488.3502197265625,105.5125961303711 L487.0364990234375,105.72740173339844 L485.61090087890625,106.3255386352539 L484.1905822753906,107.34449768066406 L482.89276123046875,108.79194641113281 L481.8089294433594,110.6369857788086 L481.00445556640625,112.79606628417969 L480.4978942871094,115.15875244140625 L480.28826904296875,117.60762023925781 L480.33380126953125,120.02633666992188 L480.5870361328125,122.30992889404297 L480.99908447265625,124.36186218261719 L481.5047302246094,126.08184051513672 L482.0182189941406,127.40853881835938 L482.4540100097656,128.27169799804688 L482.7359924316406,128.64886474609375 L482.8571472167969,128.5936279296875 L482.8711853027344,128.33375549316406 L482.8409423828125,128.06301879882812 M476.53240966796875,117.14823913574219 L476.80126953125,117.0758285522461 L477.4779052734375,116.92193603515625 L478.67828369140625,116.68392181396484 L480.38446044921875,116.39016723632812 L482.45257568359375,116.08251953125 L484.6831359863281,115.80250549316406 L486.8558349609375,115.5828628540039 L488.83514404296875,115.42720794677734 L490.51031494140625,115.32594299316406 L491.8459777832031,115.26083374023438 L492.7389831542969,115.22236633300781 L493.21820068359375,115.20059204101562 M494.1057434082031,115.5714340209961 L493.99957275390625,116.12322235107422 L493.7792663574219,117.14280700683594 L493.4300842285156,118.58560943603516 L492.96124267578125,120.21867370605469 L492.409423828125,121.839111328125 L491.86749267578125,123.2623062133789 L491.4188537597656,124.35260772705078 L491.1361999511719,125.00159454345703 L491.0479736328125,125.14676666259766 L491.106689453125,124.75919342041016 L491.260498046875,123.84516906738281 L491.47125244140625,122.49331665039062 L491.73443603515625,120.84626007080078 L492.0687255859375,119.07398223876953 L492.5024108886719,117.33740997314453 L493.0384521484375,115.76509857177734 L493.6650085449219,114.44950103759766 L494.3517150878906,113.46324920654297 L495.0907897949219,112.84788513183594 L495.8938293457031,112.61455535888672 L496.7989196777344,112.73595428466797 L497.8524169921875,113.14856719970703 L499.07806396484375,113.74988555908203 L500.4703674316406,114.4117660522461 L501.9917297363281,115.00719451904297 L503.5902099609375,115.4287109375 L505.21160888671875,115.61531066894531 L506.791259765625,115.54402923583984 L508.226806640625,115.22850799560547 L509.40667724609375,114.72283172607422 L510.19915771484375,114.10491180419922 L510.51812744140625,113.46917724609375 L510.3338317871094,112.92455291748047 L509.6627197265625,112.56605529785156 L508.55487060546875,112.48207092285156 L507.1065368652344,112.74583435058594 L505.44415283203125,113.3851547241211 L503.7453918457031,114.38973236083984 L502.2005920410156,115.70531463623047 L500.9790344238281,117.23374938964844 L500.2178649902344,118.85672760009766 L500.0189208984375,120.45972442626953 L500.4298095703125,121.90701293945312 L501.44476318359375,123.06961059570312 L502.9800109863281,123.82755279541016 L504.8887023925781,124.10704803466797 L506.98089599609375,123.8892593383789 L509.0781555175781,123.2314453125 L511.00732421875,122.20240783691406 L512.6362915039062,120.90135955810547 L513.8798828125,119.43341064453125 L514.7178955078125,117.94109344482422 L515.1807250976562,116.56722259521484 L515.3732299804688,115.44041442871094 L515.409423828125,114.62468719482422 L515.3671264648438,114.17245483398438 L515.2943115234375,114.1318130493164 L515.1842041015625,114.56491088867188 L514.9979248046875,115.49713134765625 L514.734619140625,116.86894989013672 L514.4276123046875,118.5014419555664 L514.1326904296875,120.15935516357422 L513.9278564453125,121.62089538574219 L513.845947265625,122.73397827148438 L513.879150390625,123.42057037353516 L514.0008544921875,123.65020751953125 L514.1957397460938,123.4090805053711 L514.4764404296875,122.68923950195312 L514.876220703125,121.54166412353516 L515.4281616210938,120.09521484375 L516.1558227539062,118.51380157470703 L517.06298828125,116.96662902832031 L518.145263671875,115.59712982177734 L519.3613891601562,114.49996185302734 L520.6477661132812,113.75296020507812 L521.9168090820312,113.41570281982422 L523.0651245117188,113.49571990966797 L524.0357666015625,113.97403717041016 L524.7784423828125,114.79839324951172 L525.2814331054688,115.90185546875 L525.5603637695312,117.20482635498047 L525.6251220703125,118.6077651977539 L525.5012817382812,119.9924087524414 L525.3088989257812,121.24871826171875 L525.1421508789062,122.27204895019531 L525.1112060546875,123.00615692138672 L525.1907958984375,123.43608856201172 L525.3037109375,123.62245178222656 M536.9554443359375,115.5130615234375 L536.844970703125,115.341796875 L536.607421875,115.1243896484375 L536.169921875,114.96356964111328 L535.478515625,115.0142822265625 L534.4857177734375,115.37382507324219 L533.2420043945312,116.09003448486328 L531.8824462890625,117.14105224609375 L530.6080932617188,118.446533203125 L529.6198120117188,119.87869262695312 L529.081787109375,121.29901885986328 L529.0850219726562,122.59673309326172 L529.664794921875,123.6654281616211 L530.7797241210938,124.4117660522461 L532.3343505859375,124.75978088378906 L534.1874389648438,124.6705322265625 L536.1787719726562,124.1363296508789 L538.1569213867188,123.18535614013672 L540.006591796875,121.85271453857422 L541.6640014648438,120.17341613769531 L543.11865234375,118.20050811767578 L544.3779907226562,116.01988983154297 L545.4580688476562,113.7382583618164 L546.3646240234375,111.48230743408203 L547.0786743164062,109.40203094482422 L547.6002197265625,107.62950897216797 L547.9393310546875,106.26371002197266 L548.118408203125,105.37340545654297 L548.1614990234375,105.0 L548.0711669921875,105.16712188720703 L547.8331298828125,105.92068481445312 L547.4508056640625,107.26861572265625 L546.9542236328125,109.14104461669922 L546.4177856445312,111.39656066894531 L545.9268188476562,113.84944915771484 L545.5455932617188,116.29574584960938 L545.3079833984375,118.56298828125 L545.2071533203125,120.50566864013672 L545.2113037109375,122.02951049804688 L545.2821044921875,123.08235168457031 L545.4033203125,123.63819122314453 L545.5962524414062,123.67792510986328 L545.926025390625,123.18852233886719 L546.4754028320312,122.18994903564453 L547.2952880859375,120.80750274658203 L548.391357421875,119.24175262451172 L549.7135620117188,117.71794128417969 L551.1707763671875,116.42781066894531 L552.6397094726562,115.48833465576172 L554.011474609375,114.94467163085938 L555.1860961914062,114.81415557861328 L556.1219482421875,115.09859466552734 L556.7987670898438,115.78289031982422 L557.2412109375,116.81514739990234 L557.4705200195312,118.0910873413086 L557.54296875,119.47865295410156 L557.57763671875,120.8456802368164 L557.705078125,122.076904296875 L558.0151977539062,123.0972900390625 L558.3954467773438,123.79840850830078 L558.712890625,124.17463684082031 " fill="none" stroke="black" stroke-linecap="round" stroke-width="1" /><path d="M0,0 M478.109130859375,165.0 L478.0528564453125,165.22084045410156 L477.9258728027344,165.74375915527344 L477.7187194824219,166.6626434326172 L477.43524169921875,167.98158264160156 L477.08184814453125,169.66624450683594 L476.6720275878906,171.64138793945312 L476.1944885253906,173.8057861328125 L475.6584777832031,176.04159545898438 L475.0966796875,178.21629333496094 L474.5448303222656,180.16226196289062 L474.0639343261719,181.73789978027344 L473.69073486328125,182.86334228515625 L473.42938232421875,183.52476501464844 L473.2976379394531,183.75144958496094 L473.29449462890625,183.57962036132812 L473.43670654296875,182.9940948486328 L473.79376220703125,181.995849609375 L474.4136657714844,180.6614227294922 L475.31951904296875,179.13870239257812 L476.5204772949219,177.6016845703125 L477.9647216796875,176.2158203125 L479.6058349609375,175.09063720703125 L481.4085998535156,174.31210327148438 L483.306396484375,173.95770263671875 L485.19439697265625,174.0815887451172 L486.9499816894531,174.68466186523438 L488.42083740234375,175.7017822265625 L489.483642578125,177.00918579101562 L490.0507507324219,178.46978759765625 L490.07794189453125,179.9557342529297 L489.5542907714844,181.3616943359375 L488.5229187011719,182.6098175048828 L487.0366516113281,183.6221923828125 L485.1855773925781,184.33058166503906 L483.084716796875,184.6844482421875 L480.8753967285156,184.65481567382812 L478.7274169921875,184.2454071044922 L476.82232666015625,183.51959228515625 L475.27789306640625,182.5776824951172 L474.21502685546875,181.52651977539062 L473.67730712890625,180.484130859375 L473.6325988769531,179.54470825195312 L473.8509826660156,178.8560791015625 L474.11859130859375,178.46258544921875 M492.5760498046875,174.90203857421875 L492.6219787597656,175.13417053222656 L492.6703796386719,175.6444091796875 L492.67449951171875,176.48036193847656 L492.5702819824219,177.60858154296875 L492.3381042480469,178.97239685058594 L491.989013671875,180.4725799560547 L491.59765625,181.992431640625 L491.2688293457031,183.36631774902344 L491.0822448730469,184.4159698486328 L491.06146240234375,185.0333709716797 L491.1375732421875,185.2769012451172 L491.22674560546875,185.2899169921875 M494.5415954589844,168.29458618164062 L494.6192932128906,168.12010192871094 L494.7423400878906,167.9495391845703 L494.8670654296875,167.83291625976562 L494.94976806640625,167.82029724121094 M505.97064208984375,177.18338012695312 L505.7713623046875,176.93609619140625 L505.35693359375,176.57174682617188 L504.6551818847656,176.18751525878906 L503.6622619628906,175.94863891601562 L502.38421630859375,175.9484100341797 L500.9075622558594,176.2535858154297 L499.3643798828125,176.89935302734375 L497.90777587890625,177.87547302246094 L496.6802978515625,179.10946655273438 L495.8246154785156,180.46286010742188 L495.4562683105469,181.74710083007812 L495.64605712890625,182.7676239013672 L496.39569091796875,183.3843536376953 L497.60693359375,183.5157012939453 L499.126953125,183.17091369628906 L500.773681640625,182.4237060546875 L502.3817443847656,181.38571166992188 L503.80914306640625,180.1879425048828 L504.95855712890625,178.986328125 L505.7574462890625,177.9128875732422 L506.2211608886719,177.0601043701172 L506.4051208496094,176.4754638671875 L506.4122314453125,176.1853790283203 L506.3379821777344,176.2162322998047 L506.23089599609375,176.62411499023438 L506.0938415527344,177.44039916992188 L505.96429443359375,178.62368774414062 L505.86004638671875,180.07363891601562 L505.8172912597656,181.67918395996094 L505.8444519042969,183.33518981933594 L505.901123046875,184.98728942871094 L505.9137268066406,186.59173583984375 L505.8223876953125,188.10165405273438 L505.56011962890625,189.4661407470703 L505.0904541015625,190.65016174316406 L504.3992004394531,191.6069793701172 L503.4915771484375,192.30567932128906 L502.4030456542969,192.71290588378906 L501.1967468261719,192.82794189453125 L499.9377136230469,192.64849853515625 L498.7200927734375,192.2326202392578 L497.6408996582031,191.66595458984375 L496.85992431640625,191.15029907226562 L496.42169189453125,190.80328369140625 M531.5709838867188,179.673095703125 L531.4406127929688,179.25592041015625 L531.220458984375,178.58187866210938 L530.8859252929688,177.74278259277344 L530.4159545898438,176.94223022460938 L529.7233276367188,176.29254150390625 L528.7348022460938,175.8969268798828 L527.443115234375,175.8429412841797 L525.8865356445312,176.20477294921875 L524.1665649414062,176.9982452392578 L522.445068359375,178.1709747314453 L520.893798828125,179.60662841796875 L519.6694946289062,181.15513610839844 L518.9114990234375,182.66465759277344 L518.6838989257812,184.00064086914062 L518.993408203125,185.0596160888672 L519.8023681640625,185.73643493652344 L521.0414428710938,185.9304962158203 L522.6260375976562,185.56759643554688 L524.449951171875,184.62025451660156 L526.3831787109375,183.14100646972656 L528.2826538085938,181.2557373046875 L530.0254516601562,179.10720825195312 L531.5241088867188,176.83384704589844 L532.7437133789062,174.56610107421875 L533.67333984375,172.42921447753906 L534.3215942382812,170.56243896484375 L534.7255249023438,169.07891845703125 L534.943359375,168.04229736328125 L534.997802734375,167.4768829345703 L534.9157104492188,167.39712524414062 L534.697265625,167.82879638671875 L534.3233032226562,168.8109130859375 L533.817626953125,170.31675720214844 L533.2301635742188,172.2574005126953 L532.5855102539062,174.4925994873047 L531.9439697265625,176.8577117919922 L531.3585815429688,179.19338989257812 L530.8812255859375,181.3540802001953 L530.5701904296875,183.19850158691406 L530.5166015625,184.58412170410156 L530.74853515625,185.4304656982422 L531.2574462890625,185.74261474609375 L531.8125610351562,185.7174072265625 L532.2381591796875,185.5664520263672 M542.2374267578125,179.2095489501953 L542.1527709960938,178.8947296142578 L541.9454345703125,178.4368438720703 L541.5523071289062,177.94989013671875 L540.9171142578125,177.622314453125 L540.0068359375,177.55276489257812 L538.83837890625,177.81851196289062 L537.5205078125,178.45565795898438 L536.1806640625,179.46047973632812 L534.9844970703125,180.74862670898438 L534.0664672851562,182.16854858398438 L533.5220336914062,183.55442810058594 L533.3969116210938,184.73928833007812 L533.7233276367188,185.5941619873047 L534.462158203125,186.0156707763672 L535.5712280273438,185.9501953125 L536.9583740234375,185.38758850097656 L538.47998046875,184.4043426513672 L539.978271484375,183.1342010498047 L541.3244018554688,181.7578887939453 L542.3837890625,180.45632934570312 L543.1162109375,179.37353515625 L543.5335693359375,178.57737731933594 L543.6660766601562,178.10060119628906 L543.5673217773438,177.96044921875 L543.3088989257812,178.2061767578125 L542.9089965820312,178.8945770263672 L542.4395751953125,180.01930236816406 L541.9935302734375,181.47569274902344 L541.6714477539062,183.07894897460938 L541.56298828125,184.6238250732422 L541.7382202148438,185.93666076660156 L542.197998046875,186.87474060058594 L542.9277954101562,187.31988525390625 L543.8956298828125,187.1957244873047 L545.0679321289062,186.4780731201172 L546.3954467773438,185.21865844726562 L547.818359375,183.51710510253906 L549.2631225585938,181.487548828125 L550.6615600585938,179.2413330078125 L551.9662475585938,176.89462280273438 L553.13134765625,174.5516815185547 L554.1314086914062,172.33102416992188 L554.936279296875,170.367431640625 L555.5232543945312,168.76821899414062 L555.9010620117188,167.59828186035156 L556.1038818359375,166.90028381347656 L556.1331176757812,166.6817626953125 L555.98583984375,166.95892333984375 L555.6383666992188,167.78793334960938 L555.0863037109375,169.1798858642578 L554.3728637695312,171.06161499023438 L553.5975341796875,173.30123901367188 L552.8489379882812,175.7115020751953 L552.1939086914062,178.0982666015625 L551.6644287109375,180.3222198486328 L551.268310546875,182.26002502441406 L550.9880981445312,183.7917938232422 L550.8163452148438,184.86155700683594 L550.7300415039062,185.47042846679688 L550.6982421875,185.72036743164062 M547.9070434570312,179.0618896484375 L548.0023803710938,178.8758544921875 L548.3361206054688,178.59568786621094 L549.0388793945312,178.2782745361328 L550.2415771484375,178.0352783203125 L551.8856201171875,177.90650939941406 L553.8052978515625,177.89678955078125 L555.4638671875,177.9495391845703 L556.5416259765625,178.01296997070312 M566.1815795898438,177.7887725830078 L566.0402221679688,177.6084442138672 L565.7266235351562,177.3296661376953 L565.1668701171875,177.0280303955078 L564.3031005859375,176.8368682861328 L563.0714721679688,176.84051513671875 L561.5155029296875,177.11767578125 L559.7619018554688,177.70460510253906 L558.0039672851562,178.59664916992188 L556.463134765625,179.7361602783203 L555.306884765625,181.00958251953125 L554.6395874023438,182.26507568359375 L554.498046875,183.35182189941406 L554.8760986328125,184.14666748046875 L555.7438354492188,184.57568359375 L557.0634765625,184.59988403320312 L558.7494506835938,184.21774291992188 L560.703125,183.4713134765625 L562.7402954101562,182.4318084716797 L564.6663818359375,181.20486450195312 L566.315673828125,179.9261474609375 L567.57763671875,178.72442626953125 L568.4176635742188,177.6916961669922 L568.894287109375,176.9095001220703 L569.0435791015625,176.44082641601562 L568.893310546875,176.34439086914062 L568.4486694335938,176.6719970703125 L567.7177734375,177.432373046875 L566.77978515625,178.54420471191406 L565.8070068359375,179.89857482910156 L564.9899291992188,181.3690185546875 L564.4970703125,182.83042907714844 L564.5421142578125,184.17848205566406 L565.2151489257812,185.3151092529297 L566.476806640625,186.15338134765625 L567.8076171875,186.6576690673828 L568.8056030273438,186.8848114013672 " fill="none" stroke="black" stroke-linecap="round" stroke-width="1" /></svg>