<?xml version="1.0" encoding="utf-8" ?>
<svg baseProfile="full" height="100%" version="1.1" viewBox="0,0,1000,120" width="100%" xmlns="http://www.w3.org/2000/svg" xmlns:ev="http://www.w3.org/2001/xml-events" xmlns:xlink="http://www.w3.org/1999/xlink"><defs /><rect fill="white" height="120" width="1000" x="0" y="0" /><path d="M0,0 M426.800048828125,60.749515533447266 L426.7650451660156,60.39234924316406 L426.8169860839844,59.70750045776367 L427.0479736328125,58.66691207885742 L427.5227355957031,57.33534240722656 L428.1979675292969,55.75339889526367 L429.0067138671875,54.0125846862793 L429.850830078125,52.23731231689453 L430.67730712890625,50.5923957824707 L431.4442443847656,49.229469299316406 L432.1219177246094,48.2401123046875 L432.69073486328125,47.65732192993164 L433.1404724121094,47.488285064697266 L433.4520263671875,47.7429084777832 L433.6376037597656,48.496681213378906 L433.6954345703125,49.844139099121094 L433.62188720703125,51.80976486206055 L433.435302734375,54.30131149291992 L433.1285705566406,57.106597900390625 L432.69671630859375,59.94860076904297 L432.15802001953125,62.59572982788086 L431.57501220703125,64.87887573242188 L431.0278625488281,66.69011688232422 L430.610107421875,68.00382995605469 L430.3454284667969,68.74754333496094 L430.207763671875,68.90797424316406 L430.13189697265625,68.54109954833984 L430.0893249511719,67.97354125976562 L430.0594177246094,67.47467803955078 M427.2890930175781,55.971370697021484 L427.3434753417969,55.94401550292969 L427.6282043457031,55.860599517822266 L428.28424072265625,55.67218017578125 L429.3912658691406,55.34446716308594 L430.8813781738281,54.86412048339844 L432.6007995605469,54.25971221923828 L434.37506103515625,53.61315155029297 L436.0563049316406,53.01954650878906 L437.5326843261719,52.55815887451172 L438.763916015625,52.31141662597656 L439.7095031738281,52.35707473754883 L440.35107421875,52.79430389404297 L440.6700134277344,53.71959686279297 L440.6546936035156,55.170536041259766 L440.3385925292969,57.0715446472168 L439.8036804199219,59.25994873046875 L439.15350341796875,61.50994873046875 L438.51324462890625,63.5814323425293 L437.9731750488281,65.27774810791016 L437.5932312011719,66.5085220336914 L437.3933410644531,67.24932861328125 L437.35174560546875,67.51164245605469 L437.46966552734375,67.2856216430664 L437.7666015625,66.48371124267578 L438.2811584472656,65.0508804321289 L439.062255859375,63.08507537841797 L440.1157531738281,60.82667541503906 L441.3968505859375,58.584896087646484 L442.8452453613281,56.645301818847656 L444.34130859375,55.14237976074219 L445.75732421875,54.116153717041016 L446.9893493652344,53.57236099243164 L447.96307373046875,53.54207229614258 L448.64385986328125,54.071189880371094 L449.0378723144531,55.20063018798828 L449.1379089355469,56.86688232421875 L448.9649658203125,58.91325759887695 L448.57781982421875,61.11178970336914 L448.0797119140625,63.246665954589844 L447.5892028808594,65.12870788574219 L447.2041931152344,66.63135528564453 L446.9714050292969,67.67886352539062 L446.8721923828125,68.27111053466797 L446.85235595703125,68.51139831542969 M455.0010986328125,53.098388671875 L455.0442810058594,53.32276153564453 L455.0270690917969,53.94551086425781 L454.86383056640625,55.12675857543945 L454.48443603515625,56.88138961791992 L453.9075622558594,59.07649230957031 L453.2023010253906,61.488807678222656 L452.48773193359375,63.83564758300781 L451.87713623046875,65.85231018066406 L451.4574279785156,67.3785629272461 L451.2607421875,68.34172821044922 L451.2707214355469,68.73255157470703 L451.45709228515625,68.5430908203125 L451.8125915527344,67.70767211914062 L452.3624267578125,66.19143676757812 L453.1552429199219,64.10179138183594 L454.21966552734375,61.6752815246582 L455.5413513183594,59.21097946166992 L457.04974365234375,56.959983825683594 L458.6376037597656,55.089683532714844 L460.1629638671875,53.677635192871094 L461.4967956542969,52.766422271728516 L462.53948974609375,52.39405059814453 L463.2331237792969,52.60300064086914 L463.54876708984375,53.42793273925781 L463.51611328125,54.88197326660156 L463.17120361328125,56.86405944824219 L462.6039123535156,59.1707763671875 L461.9444580078125,61.54948806762695 L461.3194885253906,63.758575439453125 L460.82489013671875,65.62517547607422 L460.5126647949219,67.07942199707031 L460.3994445800781,68.02662658691406 L460.4767150878906,68.42408752441406 L460.732666015625,68.29368591308594 L461.03033447265625,67.90950775146484 L461.26776123046875,67.52034759521484 M471.9570617675781,54.43574142456055 L471.9702453613281,54.18818664550781 L471.9341125488281,53.83566665649414 L471.7831726074219,53.468849182128906 L471.4440612792969,53.23508071899414 L470.8758544921875,53.206363677978516 L470.0938415527344,53.48527145385742 L469.1150207519531,54.16790008544922 L468.0082702636719,55.38007736206055 L466.8597106933594,57.1623649597168 L465.7914733886719,59.42593002319336 L464.9380798339844,61.93089294433594 L464.4249572753906,64.35395812988281 L464.29754638671875,66.3895263671875 L464.55010986328125,67.87136840820312 L465.1243591308594,68.75460815429688 L465.9590148925781,69.05606079101562 L466.9882507324219,68.7773208618164 L468.1548767089844,67.9084701538086 L469.36712646484375,66.46668243408203 L470.53857421875,64.5649185180664 L471.59552001953125,62.41448211669922 L472.47625732421875,60.24915313720703 L473.15118408203125,58.268165588378906 L473.6307678222656,56.60203170776367 L473.9359436035156,55.29361343383789 L474.1186828613281,54.31557846069336 L474.2320556640625,53.628334045410156 L474.3143310546875,53.17110061645508 L474.40155029296875,52.8988151550293 L474.5357971191406,52.769813537597656 L474.7449951171875,52.76575469970703 L475.0155944824219,52.88562774658203 L475.29443359375,53.20179748535156 L475.5040283203125,53.800594329833984 L475.5801696777344,54.75988006591797 L475.50738525390625,56.06916046142578 L475.3221130371094,57.6600341796875 L475.0782165527344,59.401004791259766 L474.83843994140625,61.18851089477539 L474.66522216796875,62.917442321777344 L474.60009765625,64.49063110351562 L474.64874267578125,65.79705047607422 L474.7938537597656,66.76294708251953 L474.9860534667969,67.36587524414062 L475.170166015625,67.66822052001953 L475.3340148925781,67.74150848388672 L475.48681640625,67.61144256591797 L475.66448974609375,67.23536682128906 L475.92388916015625,66.5452651977539 L476.31292724609375,65.52880859375 L476.8614196777344,64.25028228759766 L477.5940246582031,62.81329345703125 L478.50421142578125,61.30516815185547 L479.5745849609375,59.76730728149414 L480.7637939453125,58.21520233154297 L482.0284729003906,56.70237731933594 L483.2777099609375,55.30701446533203 L484.39886474609375,54.12594985961914 L485.29058837890625,53.235992431640625 L485.8934631347656,52.65348434448242 L486.22003173828125,52.315982818603516 L486.35150146484375,52.16472625732422 L486.33270263671875,52.17673110961914 L486.1653137207031,52.419342041015625 L485.8179626464844,53.02727127075195 L485.2518005371094,54.12831497192383 L484.4944763183594,55.71870040893555 L483.6263122558594,57.70108413696289 L482.74102783203125,59.89889144897461 L481.93829345703125,62.12437438964844 L481.3052062988281,64.22904205322266 L480.89801025390625,66.08402252197266 L480.73077392578125,67.55342102050781 L480.7735595703125,68.56340789794922 L480.90582275390625,69.11814880371094 L481.0287780761719,69.32786560058594 M482.0540771484375,57.57832717895508 L482.14056396484375,57.53018569946289 L482.4127502441406,57.375797271728516 L482.9854431152344,57.05698013305664 L483.91644287109375,56.538944244384766 L485.1782531738281,55.84218978881836 L486.6856689453125,55.04002380371094 L488.32611083984375,54.23802947998047 L489.97747802734375,53.527713775634766 L491.5516052246094,52.976341247558594 L492.9474792480469,52.60513687133789 L494.0623474121094,52.395530700683594 L494.8239440917969,52.30100631713867 L495.2415466308594,52.278045654296875 L495.3922119140625,52.2766227722168 L495.3605651855469,52.25714874267578 L495.1920166015625,52.211448669433594 L494.8521423339844,52.147377014160156 L494.2631530761719,52.12507629394531 L493.38494873046875,52.29011154174805 L492.2291259765625,52.82270050048828 L490.8352966308594,53.88145446777344 L489.3169250488281,55.54365921020508 L487.80914306640625,57.72037887573242 L486.46099853515625,60.1521110534668 L485.41571044921875,62.494346618652344 L484.75262451171875,64.43043518066406 L484.4906311035156,65.76726531982422 L484.612548828125,66.45391082763672 L485.0738220214844,66.51161193847656 L485.8338317871094,65.95054626464844 L486.85791015625,64.7746353149414 L488.0760498046875,63.05636215209961 L489.410888671875,60.99474334716797 L490.7544860839844,58.8784294128418 L491.980224609375,57.00307846069336 L492.978271484375,55.56090545654297 L493.6983337402344,54.58728790283203 L494.1255187988281,54.03308868408203 L494.2908630371094,53.88344955444336 L494.22528076171875,54.200557708740234 L493.947265625,55.117713928222656 L493.46209716796875,56.6938362121582 L492.84881591796875,58.797306060791016 L492.21978759765625,61.12638854980469 L491.7247314453125,63.34303283691406 L491.461181640625,65.18816375732422 L491.4625244140625,66.55985260009766 L491.70562744140625,67.40552520751953 L492.13885498046875,67.74254608154297 L492.686279296875,67.62682342529297 L493.1806640625,67.30558776855469 L493.5120849609375,66.99231719970703 M499.97491455078125,46.66011428833008 L500.01019287109375,46.553775787353516 L500.0655212402344,46.415016174316406 L500.10687255859375,46.335235595703125 L500.0672912597656,46.46788787841797 L499.8989562988281,46.97632598876953 L499.5730285644531,47.98055648803711 L499.10760498046875,49.511207580566406 L498.56878662109375,51.51643371582031 L498.0215148925781,53.855552673339844 L497.5043029785156,56.347938537597656 L497.05169677734375,58.8343505859375 L496.6907958984375,61.17790985107422 L496.45831298828125,63.2524528503418 L496.3819274902344,64.96012115478516 L496.46356201171875,66.2515869140625 L496.654541015625,67.0453872680664 L496.8750915527344,67.31681060791016 L497.06396484375,67.11526489257812 L497.1841125488281,66.70631408691406 L497.23602294921875,66.32125091552734 M497.33251953125,55.16985321044922 L497.4538879394531,55.14250564575195 L497.81573486328125,55.01679229736328 L498.5202941894531,54.710052490234375 L499.5854187011719,54.172096252441406 L500.9322509765625,53.429386138916016 L502.4422912597656,52.61034393310547 L503.9582824707031,51.85791015625 L505.366455078125,51.29538345336914 L506.5680847167969,50.98760223388672 L507.4779357910156,50.979061126708984 L508.0177001953125,51.3427734375 L508.1649169921875,52.207881927490234 L507.89251708984375,53.65061950683594 L507.26141357421875,55.6461181640625 L506.390869140625,58.02238845825195 L505.4455871582031,60.521240234375 L504.5933532714844,62.88222122192383 L503.962646484375,64.89448547363281 L503.570068359375,66.44859313964844 L503.4010925292969,67.44894409179688 L503.3934020996094,67.86790466308594 L503.4966125488281,67.76570129394531 L503.6304931640625,67.42543029785156 L503.74029541015625,67.07926940917969 M507.9283142089844,48.768638610839844 L507.9610595703125,48.709224700927734 L508.0120849609375,48.634239196777344 L508.06988525390625,48.56591033935547 L508.1120910644531,48.51252746582031 L508.1279296875,48.45853042602539 L508.1168212890625,48.391841888427734 L508.09698486328125,48.312355041503906 L508.13397216796875,48.23069381713867 L508.2782287597656,48.15210723876953 L508.5495910644531,48.0550537109375 L508.8424072265625,47.961456298828125 L509.0652770996094,47.88948059082031 M518.2211303710938,52.16071319580078 L518.24658203125,52.06843566894531 L518.2550659179688,51.92148971557617 L518.1824951171875,51.77248764038086 L517.9410400390625,51.7269172668457 L517.45361328125,51.90858459472656 L516.6912231445312,52.44245529174805 L515.6704711914062,53.43404006958008 L514.4727783203125,54.957435607910156 L513.2262573242188,57.00474548339844 L512.0851440429688,59.44679260253906 L511.1974182128906,62.04024124145508 L510.6755065917969,64.47513580322266 L510.5693664550781,66.4654312133789 L510.8549499511719,67.83905029296875 L511.4737548828125,68.53938293457031 L512.3308715820312,68.57717895507812 L513.3385620117188,67.989013671875 L514.4228515625,66.81641387939453 L515.5377807617188,65.14332580566406 L516.6419677734375,63.121334075927734 L517.7172241210938,60.951087951660156 L518.7329711914062,58.830753326416016 L519.6818237304688,56.911888122558594 L520.5802612304688,55.285240173339844 L521.4625244140625,53.99964141845703 L522.3555908203125,53.07926940917969 L523.2648315429688,52.560359954833984 L524.1378173828125,52.49864196777344 L524.8812866210938,52.9619140625 L525.3997192382812,54.00577163696289 L525.6204223632812,55.60512924194336 L525.541748046875,57.635475158691406 L525.2265625,59.890953063964844 L524.7736206054688,62.13420486450195 L524.2869262695312,64.13448333740234 L523.851806640625,65.72122955322266 L523.5114135742188,66.82376861572266 L523.2969360351562,67.4709701538086 L523.2109375,67.70401763916016 L523.2608642578125,67.51718139648438 L523.4713745117188,66.81188201904297 L523.8777465820312,65.49608612060547 L524.5169067382812,63.63163757324219 L525.4266357421875,61.45513153076172 L526.599853515625,59.263370513916016 L527.9844360351562,57.314918518066406 L529.483154296875,55.753173828125 L530.9610595703125,54.62679672241211 L532.2914428710938,53.97267532348633 L533.3682250976562,53.84313201904297 L534.1229248046875,54.29297637939453 L534.5253295898438,55.3607177734375 L534.590576171875,57.01157760620117 L534.3773193359375,59.10160827636719 L534.007080078125,61.41164016723633 L533.589111328125,63.689395904541016 L533.2227783203125,65.70850372314453 L532.9635620117188,67.31861877441406 L532.8088989257812,68.46559143066406 L532.744873046875,69.11373901367188 L532.771240234375,69.30438995361328 L532.8667602539062,69.11898803710938 L532.9805908203125,68.78730773925781 L533.076171875,68.49000549316406 M547.5889892578125,49.30957794189453 L547.6295166015625,49.274925231933594 L547.744140625,49.314796447753906 L547.9317626953125,49.53346252441406 L548.1488037109375,50.061126708984375 L548.3057861328125,50.97334671020508 L548.3368530273438,52.31935119628906 L548.2017822265625,54.090293884277344 L547.9293823242188,56.233116149902344 L547.5792846679688,58.63976287841797 L547.2168579101562,61.18598175048828 L546.8856811523438,63.71001052856445 L546.6245727539062,66.07644653320312 L546.4429321289062,68.14044189453125 L546.3499145507812,69.80361938476562 L546.3261108398438,70.91510772705078 L546.3377685546875,71.50143432617188 M542.77001953125,47.16688537597656 L543.0818481445312,47.088836669921875 L543.796875,46.958709716796875 L544.9947509765625,46.79483413696289 L546.61572265625,46.620243072509766 L548.516357421875,46.42245864868164 L550.5220336914062,46.180999755859375 L552.4963989257812,45.892234802246094 L554.3302001953125,45.578311920166016 L555.9364013671875,45.303306579589844 L557.250244140625,45.10393524169922 L558.1998901367188,45.00018310546875 L558.7305297851562,45.0 L558.8460083007812,45.14205551147461 L558.5582275390625,45.51039123535156 L557.9088745117188,46.22306823730469 L556.9756469726562,47.34270477294922 L555.85498046875,48.88782501220703 L554.6484375,50.82036590576172 L553.4617309570312,53.070274353027344 L552.382080078125,55.565879821777344 L551.4630126953125,58.21372985839844 L550.7501220703125,60.88194274902344 L550.2833862304688,63.4126091003418 L550.063720703125,65.63063049316406 L550.0809936523438,67.38177490234375 L550.3181762695312,68.59070587158203 L550.7183837890625,69.24397277832031 L551.2362060546875,69.37083435058594 L551.83740234375,68.99469757080078 L552.4632568359375,68.11363983154297 L553.101318359375,66.73958587646484 L553.7406616210938,64.96830749511719 L554.3787841796875,62.97150802612305 L555.043701171875,60.95014572143555 L555.7733154296875,59.063873291015625 L556.602783203125,57.404911041259766 L557.595458984375,56.00682067871094 L558.7935791015625,54.90431213378906 L560.2196044921875,54.14036178588867 L561.8418579101562,53.749755859375 L563.5520629882812,53.72562026977539 L565.2017211914062,54.019554138183594 L566.6385498046875,54.53941345214844 L567.7474365234375,55.173980712890625 L568.4811401367188,55.82027053833008 L568.8272705078125,56.409706115722656 L568.7637329101562,56.904441833496094 L568.2740478515625,57.314910888671875 L567.34130859375,57.712223052978516 L565.9747314453125,58.192283630371094 L564.2565307617188,58.8785514831543 L562.3248291015625,59.90398025512695 L560.336181640625,61.32745361328125 L558.492431640625,63.11656188964844 L556.9837036132812,65.13693237304688 L555.9697265625,67.15777587890625 L555.5704956054688,68.9361801147461 L555.81494140625,70.28539276123047 L556.632080078125,71.07707214355469 L557.9069213867188,71.26116943359375 L559.4772338867188,70.82181549072266 L561.1810913085938,69.77961730957031 L562.87939453125,68.22454833984375 L564.4248657226562,66.30738067626953 L565.7044677734375,64.23165130615234 L566.6428833007812,62.215335845947266 L567.2142333984375,60.42657470703125 L567.4639282226562,58.965911865234375 L567.4959106445312,57.884552001953125 L567.4091186523438,57.164093017578125 L567.3080444335938,56.75300216674805 L567.247802734375,56.56849670410156 L567.2672119140625,56.509254455566406 L567.421875,56.458927154541016 L567.7921142578125,56.31674575805664 L568.4517211914062,56.00471878051758 L569.4346313476562,55.49523162841797 L570.6861572265625,54.811187744140625 L572.1014404296875,54.03584671020508 L573.53125,53.27585220336914 L574.8416748046875,52.62773513793945 L575.9207763671875,52.15877151489258 L576.7052001953125,51.874446868896484 L577.1748657226562,51.74161148071289 L577.3720703125,51.73623275756836 L577.3197631835938,51.85042953491211 L577.02294921875,52.0988655090332 L576.451904296875,52.526859283447266 L575.6021728515625,53.169654846191406 L574.5097045898438,54.08086395263672 L573.2677001953125,55.32499313354492 L571.983154296875,56.949337005615234 L570.7617797851562,58.95374298095703 L569.7125854492188,61.26508331298828 L568.9492797851562,63.71952819824219 L568.5762939453125,66.10612487792969 L568.6549072265625,68.20409393310547 L569.1881713867188,69.84262084960938 L570.1153564453125,70.930419921875 L571.3448486328125,71.43978881835938 L572.7666015625,71.37350463867188 L574.2828369140625,70.7546615600586 L575.8004760742188,69.62098693847656 L577.2409057617188,68.07303619384766 L578.525634765625,66.29608154296875 L579.5991821289062,64.52717590332031 L580.4037475585938,62.97885513305664 L580.9337768554688,61.8038330078125 L581.2130126953125,61.032493591308594 L581.3075561523438,60.61023712158203 L581.295166015625,60.43663024902344 L581.2564697265625,60.399757385253906 L581.22216796875,60.409637451171875 M583.6270141601562,53.000362396240234 L583.6243896484375,52.93882369995117 L583.6159057617188,52.90848922729492 L583.5911254882812,53.04283905029297 L583.5248413085938,53.52112579345703 L583.3770141601562,54.477874755859375 L583.116943359375,55.926788330078125 L582.7402954101562,57.79705047607422 L582.274169921875,59.9633903503418 L581.7703247070312,62.30164337158203 L581.2662353515625,64.71341705322266 L580.7813720703125,67.11076354980469 L580.34521484375,69.36549377441406 L579.9839477539062,71.32147216796875 L579.726806640625,72.84185028076172 L579.5859985351562,73.80550384521484 L579.533447265625,74.26643371582031 M584.7130737304688,61.21714401245117 L585.3040771484375,60.89802932739258 L586.3463134765625,60.36730194091797 L587.9331665039062,59.6413459777832 L589.4485473632812,58.997589111328125 L590.5584716796875,58.55675506591797 " fill="none" stroke="black" stroke-linecap="round" stroke-width="1" /></svg>