<?xml version="1.0" encoding="utf-8" ?>
<svg baseProfile="full" height="100%" version="1.1" viewBox="0,0,1000,120" width="100%" xmlns="http://www.w3.org/2000/svg" xmlns:ev="http://www.w3.org/2001/xml-events" xmlns:xlink="http://www.w3.org/1999/xlink"><defs /><rect fill="white" height="120" width="1000" x="0" y="0" /><path d="M0,0 M426.4263610839844,46.212528228759766 L426.2349548339844,45.953826904296875 L425.8738098144531,45.58808135986328 L425.31512451171875,45.21717834472656 L424.5508117675781,45.0 L423.54656982421875,45.00497055053711 L422.3088684082031,45.270179748535156 L420.90777587890625,45.803131103515625 L419.4541931152344,46.59467315673828 L418.10479736328125,47.60826110839844 L416.98638916015625,48.791526794433594 L416.21234130859375,50.087345123291016 L415.8384094238281,51.426658630371094 L415.9250183105469,52.7552490234375 L416.5016784667969,54.01471710205078 L417.6026611328125,55.161190032958984 L419.1979064941406,56.17167663574219 L421.1824035644531,57.05393981933594 L423.3519592285156,57.841426849365234 L425.4908447265625,58.60352325439453 L427.39886474609375,59.399513244628906 L428.9424133300781,60.270938873291016 L430.0545654296875,61.22718048095703 L430.71075439453125,62.26166534423828 L430.91241455078125,63.344539642333984 L430.67156982421875,64.44364929199219 L430.0000915527344,65.50948333740234 L428.89471435546875,66.4896469116211 L427.3590087890625,67.32380676269531 L425.41900634765625,67.97004699707031 L423.15728759765625,68.38581085205078 L420.7007751464844,68.56315612792969 L418.2115478515625,68.51152038574219 L415.8487243652344,68.27800750732422 L413.74359130859375,67.91416931152344 L411.9861145019531,67.49221801757812 L410.6925964355469,67.0424575805664 L409.9299621582031,66.59754180908203 L409.70489501953125,66.16891479492188 L409.81219482421875,65.83526611328125 L410.02642822265625,65.62490844726562 M441.1534423828125,59.95130920410156 L440.98052978515625,59.622398376464844 L440.6627197265625,59.122344970703125 L440.1772766113281,58.56977462768555 L439.504150390625,58.154483795166016 L438.599853515625,57.965476989746094 L437.4612731933594,58.0488395690918 L436.1349182128906,58.427696228027344 L434.72601318359375,59.113304138183594 L433.37664794921875,60.09552764892578 L432.1886291503906,61.321041107177734 L431.2879333496094,62.70485305786133 L430.793701171875,64.1212158203125 L430.805419921875,65.4461441040039 L431.38629150390625,66.53475189208984 L432.56219482421875,67.25509643554688 L434.24932861328125,67.51705932617188 L436.315673828125,67.29430389404297 L438.5525207519531,66.62312316894531 L440.7102355957031,65.61154174804688 L442.5525817871094,64.38044738769531 L443.89794921875,63.05029296875 L444.66717529296875,61.731197357177734 L444.8785400390625,60.505470275878906 L444.61944580078125,59.43505859375 L444.00848388671875,58.58079147338867 L443.2068786621094,57.96697235107422 L442.3663024902344,57.594486236572266 L441.71337890625,57.446407318115234 L441.40289306640625,57.47163772583008 L441.49945068359375,57.60590744018555 L441.8018493652344,57.76030349731445 L442.1124267578125,57.87215805053711 M458.6925354003906,48.61648941040039 L458.4341735839844,48.06939697265625 L457.974609375,47.31620407104492 L457.3345031738281,46.553001403808594 L456.56866455078125,46.05397033691406 L455.67828369140625,45.87394714355469 L454.66143798828125,46.05162048339844 L453.528564453125,46.600006103515625 L452.3348083496094,47.57391357421875 L451.17523193359375,48.97674560546875 L450.1258544921875,50.76620864868164 L449.2533264160156,52.874752044677734 L448.5888366699219,55.21937561035156 L448.1356201171875,57.70461654663086 L447.8707580566406,60.22407913208008 L447.7711181640625,62.681251525878906 L447.78759765625,64.98130798339844 L447.8615417480469,67.02643585205078 L447.94873046875,68.73233032226562 L448.02734375,70.04534149169922 L448.06817626953125,70.87623596191406 L448.07177734375,71.2045669555664 L448.0313415527344,71.06521606445312 L447.96954345703125,70.70954895019531 L447.9129638671875,70.36203002929688 M444.23419189453125,61.09695053100586 L444.4713439941406,61.00758361816406 L445.07647705078125,60.8607177734375 L446.1618957519531,60.68130111694336 L447.72314453125,60.51118850708008 L449.645751953125,60.367008209228516 L451.7581787109375,60.25006866455078 L453.9105224609375,60.16105651855469 L456.00701904296875,60.1051139831543 L457.95556640625,60.09009552001953 L459.69683837890625,60.12134552001953 L461.15771484375,60.21502685546875 L462.2972412109375,60.395503997802734 L463.10687255859375,60.701927185058594 L463.6032409667969,61.18196105957031 L463.7884826660156,61.862632751464844 L463.71209716796875,62.7409782409668 L463.4424743652344,63.77758026123047 L463.09454345703125,64.88129425048828 L462.7966613769531,65.94833374023438 L462.66033935546875,66.82748413085938 L462.720703125,67.39024353027344 L462.9636535644531,67.57242584228516 L463.244873046875,67.5032730102539 L463.4588317871094,67.33972930908203 M463.4841003417969,52.5113639831543 L463.50445556640625,52.385963439941406 L463.61859130859375,52.30044937133789 L463.77838134765625,52.2744255065918 L463.9357604980469,52.3275032043457 M474.03643798828125,59.67196273803711 L473.7671203613281,59.52700424194336 L473.30126953125,59.33300018310547 L472.63067626953125,59.162845611572266 L471.79339599609375,59.116241455078125 L470.78289794921875,59.24644470214844 L469.6455993652344,59.59170913696289 L468.4707336425781,60.15823745727539 L467.4026184082031,60.94432830810547 L466.5544738769531,61.91155242919922 L466.0063171386719,62.982177734375 L465.806396484375,64.06291198730469 L465.9860534667969,65.04716491699219 L466.5581359863281,65.82890319824219 L467.4978942871094,66.32595825195312 L468.73028564453125,66.4786376953125 L470.15814208984375,66.266845703125 L471.65667724609375,65.7099838256836 L473.09295654296875,64.86979675292969 L474.3575744628906,63.8336296081543 L475.3533630371094,62.71895980834961 L476.01678466796875,61.64476013183594 L476.3747863769531,60.730350494384766 L476.5115051269531,60.043182373046875 L476.5054626464844,59.6231689453125 L476.4437255859375,59.4863395690918 L476.3623046875,59.66179275512695 L476.2607421875,60.17751693725586 L476.15606689453125,61.04128646850586 L476.1076965332031,62.159324645996094 L476.15985107421875,63.38469696044922 L476.37347412109375,64.54737854003906 L476.81671142578125,65.48656463623047 L477.49615478515625,66.10556030273438 L478.355712890625,66.3858642578125 L479.1412658691406,66.42617797851562 L479.676513671875,66.35845947265625 M481.7784423828125,59.336097717285156 L481.8228759765625,59.435890197753906 L481.9010314941406,59.749813079833984 L481.97369384765625,60.37470626831055 L481.98101806640625,61.324405670166016 L481.8905334472656,62.50165557861328 L481.7303771972656,63.757423400878906 L481.5778503417969,64.94371795654297 L481.5041198730469,65.92790222167969 L481.5335693359375,66.62206268310547 L481.6750793457031,66.96369934082031 L481.9329528808594,66.90596771240234 L482.3250732421875,66.41215515136719 L482.87152099609375,65.5144271850586 L483.566650390625,64.30462646484375 L484.38702392578125,62.936668395996094 L485.3191833496094,61.576148986816406 L486.32965087890625,60.36695098876953 L487.3865661621094,59.39158248901367 L488.4366455078125,58.715267181396484 L489.4309997558594,58.37882614135742 L490.3300476074219,58.4134635925293 L491.0982360839844,58.820125579833984 L491.7034912109375,59.57643127441406 L492.13238525390625,60.62405776977539 L492.38824462890625,61.86749267578125 L492.536376953125,63.179405212402344 L492.6466064453125,64.43233489990234 L492.7865905761719,65.50376892089844 L493.036376953125,66.28762817382812 L493.48779296875,66.70746612548828 L494.2276611328125,66.70503997802734 L495.3218994140625,66.25479888916016 L496.72845458984375,65.39559173583984 L498.302001953125,64.20521545410156 L499.84552001953125,62.79464340209961 L501.16790771484375,61.30044174194336 L502.12481689453125,59.85783386230469 L502.65838623046875,58.578311920166016 L502.76904296875,57.55802536010742 L502.48211669921875,56.86221694946289 L501.8472900390625,56.54745864868164 L500.91748046875,56.660030364990234 L499.7760314941406,57.2187614440918 L498.5827941894531,58.18581771850586 L497.55877685546875,59.46376037597656 L496.9230651855469,60.91648864746094 L496.8521423339844,62.405601501464844 L497.58935546875,63.79096603393555 L499.1932678222656,64.94116973876953 L501.5527038574219,65.76069641113281 L503.8428039550781,66.22395324707031 L505.47259521484375,66.40497589111328 M527.4097900390625,51.09904861450195 L527.3929443359375,51.19297409057617 L527.3064575195312,51.54764938354492 L527.111083984375,52.30705642700195 L526.7935791015625,53.514305114746094 L526.3899536132812,55.09355926513672 L525.93359375,56.924964904785156 L525.4664916992188,58.88042449951172 L524.994873046875,60.85992431640625 L524.531982421875,62.764984130859375 L524.1002197265625,64.45440673828125 L523.7320556640625,65.81835174560547 L523.4768676757812,66.7064437866211 L523.3636474609375,67.03829193115234 L523.3690795898438,66.83444213867188 L523.4342041015625,66.39215087890625 L523.50146484375,65.96724700927734 M526.0049438476562,54.628787994384766 L526.2296142578125,53.598045349121094 L526.5391845703125,52.093116760253906 L526.8660278320312,50.40700912475586 L527.1190185546875,48.99396896362305 L527.3124389648438,47.901798248291016 L527.4609375,47.10361862182617 L527.616455078125,46.53683090209961 L527.757568359375,46.237266540527344 L527.8956298828125,46.23551559448242 L528.0419921875,46.57985305786133 L528.2105712890625,47.30051803588867 L528.408935546875,48.356712341308594 L528.6858520507812,49.660186767578125 L529.0664672851562,51.06790542602539 L529.62060546875,52.43169403076172 L530.414306640625,53.63087844848633 L531.47265625,54.5657844543457 L532.7815551757812,55.154422760009766 L534.3071899414062,55.345054626464844 L535.97705078125,55.109798431396484 L537.7469482421875,54.46860122680664 L539.565673828125,53.48836898803711 L541.3541259765625,52.26481246948242 L543.00537109375,50.92367172241211 L544.417236328125,49.59752655029297 L545.4873657226562,48.41852569580078 L546.2077026367188,47.485450744628906 L546.6024780273438,46.84707260131836 L546.741943359375,46.513572692871094 L546.6832885742188,46.49784851074219 L546.4619140625,46.824928283691406 L546.0498046875,47.56724548339844 L545.4651489257812,48.749969482421875 L544.734375,50.341331481933594 L543.9481201171875,52.24500274658203 L543.201416015625,54.342350006103516 L542.5626220703125,56.50624465942383 L542.0474243164062,58.643768310546875 L541.6673583984375,60.63347625732422 L541.445068359375,62.37783432006836 L541.4425048828125,63.77835464477539 L541.71630859375,64.78301239013672 L542.3069458007812,65.37992858886719 L543.207763671875,65.60503387451172 L544.3566284179688,65.5027084350586 L545.6571655273438,65.16572570800781 L547.0093383789062,64.63995361328125 L548.287109375,63.98832702636719 L549.3958740234375,63.267921447753906 L550.1807861328125,62.660926818847656 L550.6151123046875,62.26057815551758 M552.3995361328125,49.913307189941406 L552.3551635742188,49.999595642089844 L552.2565307617188,50.317691802978516 L552.0870971679688,50.99502944946289 L551.8331909179688,52.070926666259766 L551.51513671875,53.479976654052734 L551.163818359375,55.10777282714844 L550.83349609375,56.823760986328125 L550.60498046875,58.53770065307617 L550.5411376953125,60.1689567565918 L550.664306640625,61.638668060302734 L550.9944458007812,62.88029861450195 L551.5255126953125,63.83966827392578 L552.2530517578125,64.48706817626953 L553.17578125,64.83163452148438 L554.2852783203125,64.90022277832031 L555.536865234375,64.71405029296875 L556.8289794921875,64.31451416015625 L558.0239868164062,63.75659942626953 L558.9039916992188,63.23380661010742 L559.39599609375,62.86998748779297 M549.052001953125,58.759300231933594 L549.55517578125,58.65987777709961 L550.5225830078125,58.46078109741211 L551.5966796875,58.23621368408203 L552.419677734375,58.06037902832031 M558.5540161132812,57.62295150756836 L558.4866943359375,57.61192321777344 L558.462646484375,57.58103942871094 L558.4817504882812,57.54233932495117 L558.544189453125,57.507877349853516 M570.11962890625,61.99424743652344 L570.0225830078125,61.688812255859375 L569.7908935546875,61.14472198486328 L569.376708984375,60.41893005371094 L568.768798828125,59.676273345947266 L567.9813232421875,59.03935241699219 L567.023193359375,58.596614837646484 L565.9454345703125,58.40021514892578 L564.8097534179688,58.48426055908203 L563.6785278320312,58.86936950683594 L562.6279907226562,59.563453674316406 L561.7501831054688,60.529998779296875 L561.1046752929688,61.68528747558594 L560.78271484375,62.911964416503906 L560.85205078125,64.06520080566406 L561.3345947265625,64.99440002441406 L562.2084350585938,65.56657409667969 L563.43115234375,65.67758178710938 L564.9056396484375,65.28338623046875 L566.5242919921875,64.3826675415039 L568.1754150390625,63.01932144165039 L569.743896484375,61.26974868774414 L571.1214599609375,59.23146438598633 L572.2607421875,57.02134704589844 L573.1490478515625,54.77950668334961 L573.79052734375,52.659725189208984 L574.2186889648438,50.83203887939453 L574.4762573242188,49.41379928588867 L574.583251953125,48.46281433105469 L574.5801391601562,47.98863220214844 L574.4924926757812,47.974822998046875 L574.3265991210938,48.44326400756836 L574.0943603515625,49.446624755859375 L573.8270874023438,50.96562194824219 L573.5357055664062,52.91392135620117 L573.2369384765625,55.13787841796875 L572.9517822265625,57.46359634399414 L572.744873046875,59.76076889038086 L572.7116088867188,61.925724029541016 L572.9479370117188,63.846580505371094 L573.5442504882812,65.3738784790039 L574.4683837890625,66.37354278564453 L575.6083984375,66.80573272705078 L576.6185302734375,66.84774780273438 L577.2893676757812,66.71957397460938 M582.587890625,58.7087287902832 L582.59619140625,58.693485260009766 L582.6441040039062,58.78117370605469 L582.7301025390625,59.08257293701172 L582.8220825195312,59.68568420410156 L582.863037109375,60.59621047973633 L582.8447265625,61.80051803588867 L582.7657470703125,63.25038146972656 L582.6680908203125,64.89633178710938 L582.5743408203125,66.69243621826172 L582.4685668945312,68.57328796386719 L582.3084716796875,70.46873474121094 L582.0585327148438,72.3126220703125 L581.6538696289062,74.02072143554688 L581.0578002929688,75.51496124267578 L580.2556762695312,76.71588134765625 L579.2572021484375,77.54312133789062 L578.126220703125,77.94361114501953 L576.967529296875,77.88825988769531 L575.88427734375,77.40738677978516 L574.9974975585938,76.50955200195312 L574.3978881835938,75.27098083496094 L574.1154174804688,73.81765747070312 L574.0645141601562,72.556396484375 L574.124755859375,71.7203369140625 M582.5810546875,54.60881423950195 L582.607177734375,54.624847412109375 L582.6767578125,54.68965148925781 L582.7623901367188,54.7767448425293 L582.836669921875,54.859622955322266 M587.3538208007812,57.49394989013672 L587.3803100585938,57.81547164916992 L587.38623046875,58.4396858215332 L587.3314208984375,59.36982345581055 L587.18896484375,60.50055694580078 L586.9630737304688,61.72685241699219 L586.7100219726562,62.92537307739258 L586.495361328125,63.979774475097656 L586.3494262695312,64.80521392822266 L586.297119140625,65.3437728881836 L586.326904296875,65.54825592041016 L586.41748046875,65.37450408935547 L586.565185546875,64.77928924560547 L586.7734375,63.7613525390625 L587.0398559570312,62.40789794921875 L587.3989868164062,60.856536865234375 L587.872802734375,59.264408111572266 L588.4791259765625,57.76881790161133 L589.2205810546875,56.469329833984375 L590.0753173828125,55.43687438964844 L591.039306640625,54.72727584838867 L592.0858764648438,54.340389251708984 L593.1717529296875,54.23655700683594 L594.0607299804688,54.28599548339844 L594.62890625,54.37537384033203 M602.1343994140625,57.09925079345703 L601.9339599609375,56.92665100097656 L601.5399169921875,56.679222106933594 L600.9281616210938,56.45555114746094 L600.1267700195312,56.3992919921875 L599.1534423828125,56.606407165527344 L598.068115234375,57.12689208984375 L596.9588012695312,57.94964599609375 L595.9495849609375,59.01673126220703 L595.1768188476562,60.22968673706055 L594.7662353515625,61.45853042602539 L594.7877807617188,62.58427047729492 L595.2542114257812,63.4919548034668 L596.1260986328125,64.10304260253906 L597.298828125,64.34866333007812 L598.6593017578125,64.1703872680664 L600.11083984375,63.55531692504883 L601.5314331054688,62.54585647583008 L602.805908203125,61.23719787597656 L603.8391723632812,59.79255676269531 L604.5527954101562,58.39091491699219 L604.94287109375,57.17903137207031 L605.0778198242188,56.260799407958984 L605.0235595703125,55.68071365356445 L604.85595703125,55.46241760253906 L604.6260375976562,55.634151458740234 L604.3575439453125,56.2355842590332 L604.0908203125,57.25497817993164 L603.8977661132812,58.60780334472656 L603.8399047851562,60.12929153442383 L603.9911499023438,61.639713287353516 L604.3948974609375,62.96503829956055 L605.0892944335938,63.93619918823242 L606.03662109375,64.43671417236328 L607.1563720703125,64.44437408447266 L608.1285400390625,64.17967987060547 L608.7673950195312,63.87779998779297 M610.7952880859375,56.47415542602539 L610.7916259765625,56.695655822753906 L610.7815551757812,57.21620559692383 L610.7595825195312,58.08999252319336 L610.728271484375,59.256893157958984 L610.6998901367188,60.577171325683594 L610.6823120117188,61.87575149536133 L610.692626953125,62.998985290527344 L610.7312622070312,63.841407775878906 L610.801513671875,64.321044921875 L610.9202270507812,64.39302062988281 L611.1110229492188,64.02771759033203 L611.404052734375,63.21926498413086 L611.8349609375,62.04961013793945 L612.4085693359375,60.666019439697266 L613.13818359375,59.23959732055664 L614.01220703125,57.9352912902832 L614.9712524414062,56.86526870727539 L615.9298095703125,56.0813102722168 L616.8072509765625,55.632476806640625 L617.5267333984375,55.54255676269531 L618.0687255859375,55.82685470581055 L618.4351806640625,56.48269271850586 L618.6140747070312,57.46321105957031 L618.6019897460938,58.67415237426758 L618.4398193359375,60.002838134765625 L618.1776123046875,61.292564392089844 L617.89990234375,62.401222229003906 L617.677490234375,63.242549896240234 L617.540771484375,63.754058837890625 L617.4955444335938,63.89495086669922 L617.5582275390625,63.65151596069336 L617.7415161132812,62.99800109863281 L618.0823974609375,61.95553207397461 L618.60546875,60.6356086730957 L619.3326416015625,59.18400573730469 L620.2625732421875,57.74938201904297 L621.3780517578125,56.467716217041016 L622.6361083984375,55.4186897277832 L623.9818725585938,54.654178619384766 L625.3402099609375,54.22246551513672 L626.6591186523438,54.158851623535156 L627.8758544921875,54.481143951416016 L628.9320068359375,55.18852233886719 L629.7653198242188,56.23341751098633 L630.3338623046875,57.53607177734375 L630.6278076171875,58.99867248535156 L630.709228515625,60.51698303222656 L630.6458740234375,62.01216506958008 L630.5051879882812,63.43870544433594 L630.3677978515625,64.5443115234375 L630.2720947265625,65.22825622558594 " fill="none" stroke="black" stroke-linecap="round" stroke-width="1" /></svg>