<?xml version="1.0" encoding="utf-8" ?>
<svg baseProfile="full" height="100%" version="1.1" viewBox="0,0,1000,180" width="100%" xmlns="http://www.w3.org/2000/svg" xmlns:ev="http://www.w3.org/2001/xml-events" xmlns:xlink="http://www.w3.org/1999/xlink"><defs /><rect fill="white" height="180" width="1000" x="0" y="0" /><path d="M0,0 M392.36749267578125,47.54785919189453 L392.40020751953125,47.52985763549805 L392.5138244628906,47.648338317871094 L392.7257995605469,48.06515121459961 L393.005615234375,48.942508697509766 L393.2708740234375,50.33509826660156 L393.4416809082031,52.205078125 L393.4896240234375,54.41991424560547 L393.4203796386719,56.78264236450195 L393.28411865234375,59.07770538330078 L393.1402282714844,61.104835510253906 L393.0230407714844,62.712154388427734 L392.95574951171875,63.84206008911133 L392.950439453125,64.48318481445312 L392.9913635253906,64.62650299072266 L393.11517333984375,64.26756286621094 L393.4193115234375,63.39875030517578 L393.9735107421875,62.05931091308594 L394.8316650390625,60.40632629394531 L395.984375,58.64569854736328 L397.33990478515625,56.97454071044922 L398.8038330078125,55.57265090942383 L400.333984375,54.56563186645508 L401.84307861328125,54.01255416870117 L403.2730407714844,53.962154388427734 L404.56280517578125,54.43124008178711 L405.6368408203125,55.3802375793457 L406.44189453125,56.725528717041016 L406.9974670410156,58.37864685058594 L407.3301696777344,60.16813278198242 L407.5214538574219,61.906490325927734 L407.6271057128906,63.24612045288086 L407.68365478515625,64.04331970214844 M419.4629211425781,56.34722137451172 L419.1984558105469,56.22261428833008 L418.68994140625,56.095306396484375 L417.90863037109375,56.082733154296875 L416.8926696777344,56.34712219238281 L415.659423828125,56.979148864746094 L414.3415832519531,57.998443603515625 L413.0933837890625,59.30939865112305 L412.0928039550781,60.765296936035156 L411.4835205078125,62.178199768066406 L411.32720947265625,63.39517593383789 L411.6114196777344,64.29530334472656 L412.3163757324219,64.79592895507812 L413.4015808105469,64.84468078613281 L414.7911376953125,64.42365264892578 L416.3863220214844,63.557159423828125 L418.04595947265625,62.34025192260742 L419.5989990234375,60.91609191894531 L420.9060974121094,59.48808670043945 L421.87872314453125,58.257240295410156 L422.4930114746094,57.34893798828125 L422.80340576171875,56.819114685058594 L422.901611328125,56.67063522338867 L422.9022216796875,56.90743637084961 L422.88714599609375,57.570640563964844 L422.8924255371094,58.64598846435547 L422.95648193359375,60.008060455322266 L423.10968017578125,61.45851516723633 L423.3697204589844,62.769989013671875 L423.7507629394531,63.779441833496094 L424.19940185546875,64.4423599243164 L424.57769775390625,64.79165649414062 L424.8182678222656,64.9215087890625 M429.21337890625,46.777626037597656 L429.2738037109375,47.0278434753418 L429.3785400390625,47.648590087890625 L429.5135498046875,48.73454284667969 L429.6258239746094,50.233116149902344 L429.6744384765625,52.00362014770508 L429.6194763183594,53.87727355957031 L429.4627685546875,55.701961517333984 L429.2591247558594,57.33829879760742 L429.078125,58.6756591796875 L428.9681701660156,59.64244842529297 L428.9669494628906,60.205841064453125 L429.0753173828125,60.35040283203125 L429.33056640625,60.07255935668945 L429.8096008300781,59.37712478637695 L430.58026123046875,58.33707046508789 L431.6715393066406,57.14384841918945 L433.06317138671875,56.01980972290039 L434.638671875,55.14306640625 L436.28173828125,54.62516403198242 L437.871337890625,54.49361038208008 L439.30194091796875,54.7187614440918 L440.47052001953125,55.265933990478516 L441.33203125,56.06597137451172 L441.832275390625,57.02552032470703 L441.96734619140625,58.05225372314453 L441.7364807128906,59.06011962890625 L441.1531982421875,59.9703483581543 L440.2008972167969,60.719322204589844 L438.93316650390625,61.25815963745117 L437.4102783203125,61.559654235839844 L435.7677307128906,61.62714767456055 L434.1304626464844,61.49010467529297 L432.6295471191406,61.21142578125 L431.3344421386719,60.858787536621094 L430.2981262207031,60.504920959472656 L429.5596618652344,60.185401916503906 L429.1597595214844,59.91450500488281 L429.0722351074219,59.68031311035156 L429.1690368652344,59.507484436035156 L429.31201171875,59.39927291870117 M444.80877685546875,55.240806579589844 L444.8502502441406,55.53535461425781 L444.91558837890625,56.13298034667969 L444.9881286621094,57.04283905029297 L445.03936767578125,58.147151947021484 L445.0492858886719,59.33646774291992 L445.0227966308594,60.50201416015625 L444.98004150390625,61.577510833740234 L444.961669921875,62.44747543334961 L444.98931884765625,63.004638671875 L445.0722961425781,63.1639289855957 L445.1669921875,63.06159210205078 L445.2381896972656,62.864437103271484 M445.1653137207031,47.21007537841797 L445.25482177734375,47.036521911621094 L445.45745849609375,46.85657501220703 L445.6958923339844,46.72478103637695 L445.89276123046875,46.695682525634766 M453.0501708984375,46.68292236328125 L453.017822265625,47.165950775146484 L452.9739685058594,48.13849639892578 L452.902099609375,49.607330322265625 L452.8050537109375,51.4117546081543 L452.6592102050781,53.38899612426758 L452.4757995605469,55.35568618774414 L452.28155517578125,57.138797760009766 L452.1431884765625,58.587825775146484 L452.07061767578125,59.602054595947266 L452.0817565917969,60.159088134765625 L452.155029296875,60.27853775024414 L452.326904296875,59.98479080200195 L452.662353515625,59.29607391357422 L453.2972412109375,58.25663375854492 L454.2841491699219,57.007015228271484 L455.63677978515625,55.73775863647461 L457.266845703125,54.63208770751953 L459.0668640136719,53.836204528808594 L460.89886474609375,53.44404983520508 L462.65887451171875,53.49282455444336 L464.2190246582031,53.991756439208984 L465.4842224121094,54.88801193237305 L466.354248046875,56.0665283203125 L466.7786560058594,57.39128112792969 L466.7176208496094,58.72502136230469 L466.1760559082031,59.93809509277344 L465.21612548828125,60.93651580810547 L463.9183349609375,61.64816665649414 L462.37030029296875,62.026153564453125 L460.68914794921875,62.06855773925781 L458.96221923828125,61.81120681762695 L457.2865905761719,61.278076171875 L455.8066711425781,60.55144500732422 L454.6253662109375,59.727081298828125 L453.8511962890625,59.0290412902832 L453.4697570800781,58.581993103027344 M468.7398986816406,53.62291717529297 L468.8386535644531,53.99863815307617 L468.9476013183594,54.70174789428711 L469.0119934082031,55.71333694458008 L468.9828186035156,56.89733123779297 L468.88873291015625,58.15894317626953 L468.77301025390625,59.39752960205078 L468.6773681640625,60.53850555419922 L468.6261291503906,61.41267013549805 L468.62530517578125,61.86815643310547 L468.68243408203125,61.820621490478516 L468.7620544433594,61.49125289916992 L468.83209228515625,61.12108612060547 M470.0709533691406,45.435508728027344 L470.1475524902344,45.30563735961914 L470.32293701171875,45.158958435058594 L470.5300598144531,45.04167938232422 L470.70196533203125,45.0 M476.5503845214844,45.33696365356445 L476.4965515136719,45.9381217956543 L476.4387512207031,47.026737213134766 L476.381103515625,48.55415344238281 L476.318603515625,50.30861282348633 L476.220947265625,52.17837905883789 L476.0699462890625,54.058753967285156 L475.8800048828125,55.843929290771484 L475.70318603515625,57.39656448364258 L475.5616760253906,58.601463317871094 L475.4800720214844,59.38501739501953 L475.4734802246094,59.72560501098633 L475.5618591308594,59.63968276977539 L475.799072265625,59.14385986328125 L476.260986328125,58.27730178833008 L476.9886779785156,57.152015686035156 L478.0382080078125,55.91861343383789 L479.403564453125,54.736297607421875 L481.0461730957031,53.740806579589844 L482.90032958984375,53.027870178222656 L484.84368896484375,52.66464614868164 L486.7208557128906,52.69321823120117 L488.400146484375,53.11476516723633 L489.7379150390625,53.878787994384766 L490.6343994140625,54.89603042602539 L491.00885009765625,56.05870819091797 L490.796630859375,57.275169372558594 L489.98040771484375,58.4523811340332 L488.5892333984375,59.51057052612305 L486.70556640625,60.37239074707031 L484.4888916015625,60.985023498535156 L482.1326904296875,61.3117561340332 L479.88409423828125,61.33043670654297 L477.9779052734375,61.06244659423828 L476.57073974609375,60.576026916503906 L475.7322082519531,60.08140182495117 L475.3648986816406,59.728755950927734 M511.1298828125,55.610504150390625 L510.93438720703125,56.265933990478516 L510.6642150878906,57.354034423828125 L510.3974609375,58.71476364135742 L510.22637939453125,60.007240295410156 L510.1613464355469,61.06099319458008 L510.16656494140625,61.73946762084961 L510.2203674316406,61.99531555175781 L510.3497619628906,61.77204895019531 L510.62689208984375,61.039058685302734 L511.13067626953125,59.83525085449219 L511.92022705078125,58.31468963623047 L512.9827880859375,56.68526077270508 L514.2586059570312,55.16197204589844 L515.6476440429688,53.900108337402344 L517.0525512695312,52.978843688964844 L518.4035034179688,52.441375732421875 L519.6373291015625,52.31692123413086 L520.720458984375,52.62330627441406 L521.605224609375,53.33329391479492 L522.2457275390625,54.37397766113281 L522.616455078125,55.61203384399414 L522.759521484375,56.87622833251953 L522.742919921875,57.98807907104492 L522.6768188476562,58.82880783081055 L522.637451171875,59.3154411315918 L522.689453125,59.42262268066406 L522.8699340820312,59.14122009277344 L523.240966796875,58.47126007080078 L523.8477783203125,57.46064758300781 L524.727294921875,56.23711395263672 L525.8773193359375,54.955223083496094 L527.2557373046875,53.781089782714844 L528.7733764648438,52.839599609375 L530.346923828125,52.19956588745117 L531.8885498046875,51.898895263671875 L533.3353271484375,51.969566345214844 L534.6414794921875,52.41584396362305 L535.7501220703125,53.2093505859375 L536.6097412109375,54.28647232055664 L537.200439453125,55.543514251708984 L537.5301513671875,56.850650787353516 L537.6475830078125,58.082767486572266 L537.6234130859375,59.14794921875 L537.5667724609375,59.942752838134766 L537.5723266601562,60.40937423706055 L537.7156372070312,60.5395622253418 L537.9241943359375,60.462890625 L538.113525390625,60.31808853149414 M543.81103515625,53.909568786621094 L543.8876953125,53.79114532470703 L543.9974975585938,53.76377487182617 L544.099853515625,53.97955322265625 L544.1265869140625,54.57133865356445 L544.0382690429688,55.510189056396484 L543.8566284179688,56.662261962890625 L543.641845703125,57.87248229980469 L543.4407958984375,58.9964485168457 L543.2960815429688,59.90701675415039 L543.210693359375,60.53410720825195 L543.1661987304688,60.8780517578125 L543.1502075195312,61.0019416809082 M544.0743408203125,46.84911346435547 L544.0643920898438,46.65205764770508 L544.0703125,46.44465637207031 L544.087890625,46.290122985839844 L544.1126708984375,46.25164794921875 M557.2094116210938,51.58551788330078 L556.960205078125,51.575531005859375 L556.3973388671875,51.629547119140625 L555.4484252929688,51.81169891357422 L554.205078125,52.15519714355469 L552.8539428710938,52.636474609375 L551.6466674804688,53.19908142089844 L550.82763671875,53.79896545410156 L550.5708618164062,54.40843200683594 L550.9293823242188,55.02384948730469 L551.8976440429688,55.62945556640625 L553.3723754882812,56.21739959716797 L555.1771240234375,56.78699493408203 L557.0955810546875,57.362579345703125 L558.90869140625,57.96030807495117 L560.4124145507812,58.58506393432617 L561.4771728515625,59.200286865234375 L562.0197143554688,59.7709846496582 L562.001708984375,60.283294677734375 L561.4227294921875,60.73727035522461 L560.3291015625,61.13483428955078 L558.7947387695312,61.4597282409668 L556.96337890625,61.67203140258789 L555.0029296875,61.74238204956055 L553.1172485351562,61.653961181640625 L551.5072021484375,61.42720031738281 L550.3209838867188,61.1186408996582 L549.6150512695312,60.8385009765625 L549.3135986328125,60.65369415283203 M571.4886474609375,50.88713073730469 L571.2119140625,50.703125 L570.64697265625,50.49748992919922 L569.7561645507812,50.399314880371094 L568.5806274414062,50.54407501220703 L567.21044921875,50.943389892578125 L565.8115234375,51.528221130371094 L564.5873413085938,52.19187927246094 L563.7545166015625,52.86833953857422 L563.4891967773438,53.52473449707031 L563.83642578125,54.14639663696289 L564.7738037109375,54.724098205566406 L566.1986694335938,55.24977111816406 L567.9344482421875,55.72754669189453 L569.766357421875,56.18706512451172 L571.4832763671875,56.65682601928711 L572.8795776367188,57.14939880371094 L573.8265380859375,57.64211654663086 L574.265380859375,58.118309020996094 L574.1968994140625,58.562896728515625 L573.6334228515625,58.97537612915039 L572.5970458984375,59.34022903442383 L571.142333984375,59.62603759765625 L569.364990234375,59.7884635925293 L567.4021606445312,59.8082275390625 L565.4788818359375,59.70468521118164 L563.7949829101562,59.53157043457031 L562.6061401367188,59.37042236328125 L561.964599609375,59.267059326171875 M600.8886108398438,53.530792236328125 L600.89697265625,53.581974029541016 L600.8860473632812,53.827880859375 L600.84765625,54.393795013427734 L600.7921752929688,55.327510833740234 L600.7808227539062,56.540802001953125 L600.8668212890625,57.85245132446289 L601.1188354492188,59.063323974609375 L601.5806884765625,59.99232864379883 L602.3014526367188,60.516937255859375 L603.3109741210938,60.5628662109375 L604.6204833984375,60.11137390136719 L606.1549072265625,59.210357666015625 L607.8016357421875,57.98590850830078 L609.3905029296875,56.628082275390625 L610.7476806640625,55.354942321777344 L611.7514038085938,54.32429122924805 L612.354736328125,53.62458038330078 L612.5714111328125,53.29576873779297 L612.4857177734375,53.34990692138672 L612.16552734375,53.849327087402344 L611.642822265625,54.860713958740234 L610.9638671875,56.37438201904297 L610.1603393554688,58.31431198120117 L609.2838745117188,60.573463439941406 L608.3990478515625,63.01885223388672 L607.5352783203125,65.55403137207031 L606.6961669921875,68.07441711425781 L605.8717041015625,70.44107818603516 L605.0308837890625,72.49127960205078 L604.1759033203125,74.0913314819336 L603.3428955078125,75.16372680664062 L602.56787109375,75.68121337890625 L601.90087890625,75.64733123779297 L601.3610229492188,75.09506225585938 L600.9476318359375,74.07743835449219 L600.7341918945312,72.62210083007812 L600.7940673828125,70.86646270751953 L601.158203125,68.98576354980469 L601.633056640625,67.43738555908203 L602.0343017578125,66.46208953857422 M621.8438720703125,54.29842758178711 L621.704833984375,54.04722213745117 L621.3953857421875,53.71332931518555 L620.837646484375,53.41735076904297 L619.970458984375,53.334259033203125 L618.78466796875,53.535911560058594 L617.3766479492188,54.05958557128906 L615.9346923828125,54.87681579589844 L614.68994140625,55.92229080200195 L613.842529296875,57.084716796875 L613.5014038085938,58.23637771606445 L613.7108154296875,59.25936508178711 L614.4403076171875,60.04116439819336 L615.6104736328125,60.50086212158203 L617.1182861328125,60.5926513671875 L618.834716796875,60.307289123535156 L620.6055297851562,59.6776123046875 L622.248046875,58.770015716552734 L623.597412109375,57.66313171386719 L624.5205078125,56.46910858154297 L624.9676513671875,55.305965423583984 L625.0004272460938,54.283592224121094 L624.7479248046875,53.477516174316406 L624.4268188476562,52.95677185058594 L624.1904296875,52.69397735595703 M628.99560546875,52.258174896240234 L628.9990234375,52.470008850097656 L629.0087890625,52.938438415527344 L629.0291137695312,53.69951629638672 L629.0589599609375,54.680503845214844 L629.1259765625,55.77534866333008 L629.2781982421875,56.84928512573242 L629.596923828125,57.777374267578125 L630.16357421875,58.45720291137695 L631.01953125,58.80115509033203 L632.1460571289062,58.73451232910156 L633.490966796875,58.24193572998047 L634.9366455078125,57.373451232910156 L636.37451171875,56.229610443115234 L637.7154541015625,54.96934509277344 L638.8626708984375,53.762325286865234 L639.7496337890625,52.743385314941406 L640.3607177734375,51.9910774230957 L640.7047119140625,51.540740966796875 L640.8413696289062,51.38695526123047 L640.8543701171875,51.55082702636719 L640.7838745117188,52.063232421875 L640.6512451171875,52.93466567993164 L640.4862060546875,54.09785842895508 L640.3388061523438,55.44428634643555 L640.2633666992188,56.801490783691406 L640.3051147460938,58.015377044677734 L640.4085083007812,58.885406494140625 L640.510498046875,59.370365142822266 " fill="none" stroke="black" stroke-linecap="round" stroke-width="1" /><path d="M0,0 M408.61553955078125,115.72187042236328 L408.34564208984375,115.4219741821289 L407.8259582519531,115.02792358398438 L407.0234069824219,114.71678924560547 L405.96044921875,114.7421875 L404.6505432128906,115.21533203125 L403.21478271484375,116.13017272949219 L401.846435546875,117.34746551513672 L400.77093505859375,118.66699981689453 L400.19354248046875,119.87212371826172 L400.2309265136719,120.7894515991211 L400.90472412109375,121.32011413574219 L402.15216064453125,121.41194152832031 L403.8438720703125,121.07359313964844 L405.7901916503906,120.35782623291016 L407.7550354003906,119.38003540039062 L409.53070068359375,118.30565643310547 L410.9613037109375,117.32615661621094 L411.9637756347656,116.57444763183594 L412.5510559082031,116.14323425292969 L412.8113098144531,116.0842056274414 L412.8255615234375,116.44023895263672 L412.6719055175781,117.2500228881836 L412.4195556640625,118.5161361694336 L412.116943359375,120.14713287353516 L411.8001708984375,122.00802612304688 L411.4966735839844,123.95318603515625 L411.20281982421875,125.85187530517578 L410.851806640625,127.59953308105469 L410.3800048828125,129.10105895996094 L409.72332763671875,130.2626190185547 L408.8461608886719,131.0292510986328 L407.7565612792969,131.39334106445312 L406.52569580078125,131.3906707763672 L405.2236022949219,131.0839080810547 L403.94677734375,130.53948974609375 L402.83160400390625,129.77488708496094 L402.01312255859375,128.84194946289062 L401.5729675292969,127.81934356689453 L401.44677734375,126.96109008789062 L401.4923095703125,126.41162109375 M423.7603759765625,115.62600708007812 L423.47174072265625,115.33939361572266 L422.9342041015625,114.98809051513672 L422.1063232421875,114.74766540527344 L421.0313720703125,114.84465789794922 L419.75128173828125,115.36219024658203 L418.3948669433594,116.28681945800781 L417.14434814453125,117.50602722167969 L416.2491760253906,118.86074829101562 L415.8840637207031,120.1641616821289 L416.1681213378906,121.2336196899414 L417.11639404296875,121.94571685791016 L418.6316223144531,122.2151870727539 L420.5426025390625,122.01525115966797 L422.6203308105469,121.37165832519531 L424.59100341796875,120.37049102783203 L426.2250061035156,119.12925720214844 L427.344970703125,117.80912017822266 L427.8511962890625,116.55070495605469 L427.7521667480469,115.45939636230469 L427.1164855957031,114.63395690917969 L426.1047058105469,114.13443756103516 L424.9385070800781,113.96527862548828 L423.9698791503906,114.0102310180664 L423.3708801269531,114.1323471069336 M454.64422607421875,114.987548828125 L454.3857421875,114.73379516601562 L453.86578369140625,114.4508285522461 L453.01934814453125,114.31241607666016 L451.8602600097656,114.52584075927734 L450.427001953125,115.13558197021484 L448.8501281738281,116.11045837402344 L447.3398132324219,117.35858154296875 L446.1340637207031,118.77371978759766 L445.41900634765625,120.2293930053711 L445.2989807128906,121.57999420166016 L445.78680419921875,122.67601776123047 L446.8428649902344,123.38662719726562 L448.3724365234375,123.62901306152344 L450.22857666015625,123.35594940185547 L452.2491455078125,122.58599853515625 L454.22979736328125,121.38655090332031 L455.97247314453125,119.88956451416016 L457.30255126953125,118.26261901855469 L458.0957336425781,116.6788558959961 L458.2949523925781,115.29444885253906 L457.982666015625,114.23062133789062 L457.31707763671875,113.53724670410156 L456.64398193359375,113.18414306640625 L456.1741027832031,113.06845092773438 M462.73681640625,113.5101089477539 L462.67694091796875,113.56895446777344 L462.55279541015625,113.84983825683594 L462.347412109375,114.47936248779297 L462.0878601074219,115.50790405273438 L461.8187561035156,116.84413146972656 L461.6286315917969,118.33590698242188 L461.5997619628906,119.79389953613281 L461.8260803222656,121.05659484863281 L462.3354797363281,121.9817886352539 L463.14276123046875,122.46459197998047 L464.2072448730469,122.43433380126953 L465.4830627441406,121.87374114990234 L466.91461181640625,120.82681274414062 L468.42755126953125,119.40447235107422 L469.8992004394531,117.77613830566406 L471.22198486328125,116.16455078125 L472.2657470703125,114.78388214111328 L472.98358154296875,113.7611083984375 L473.4027404785156,113.15364837646484 L473.5745849609375,112.96963500976562 L473.5633850097656,113.21644592285156 L473.4234619140625,113.93020629882812 L473.1726989746094,115.11886596679688 L472.87884521484375,116.65966796875 L472.6214294433594,118.36094665527344 L472.48529052734375,120.01815032958984 L472.5275573730469,121.47562408447266 L472.8095397949219,122.5875244140625 L473.3352966308594,123.27249908447266 L474.08038330078125,123.4857177734375 L474.79107666015625,123.39289093017578 L475.3006286621094,123.1942367553711 M484.5681457519531,105.0 L484.603515625,105.1973876953125 L484.6336975097656,105.72811889648438 L484.6195068359375,106.71443176269531 L484.4996643066406,108.16127014160156 L484.2322082519531,109.97662353515625 L483.8311767578125,112.0057601928711 L483.38604736328125,114.0935287475586 L483.00115966796875,116.10781860351562 L482.763671875,117.93121337890625 L482.7019348144531,119.46864318847656 L482.7555236816406,120.67626953125 L482.8590087890625,121.49522399902344 L482.96234130859375,121.90770721435547 L483.0289306640625,121.93506622314453 L483.0555419921875,121.75350952148438 L483.063232421875,121.53193664550781 M479.02777099609375,114.83287048339844 L479.14361572265625,114.78868103027344 L479.5465393066406,114.71944427490234 L480.3689880371094,114.63190460205078 L481.6969299316406,114.53092956542969 L483.4335632324219,114.41741943359375 L485.35931396484375,114.28827667236328 L486.96087646484375,114.17488861083984 L487.9739074707031,114.0993423461914 M499.9006042480469,111.53447723388672 L499.568115234375,111.43541717529297 L498.88677978515625,111.39945983886719 L497.80572509765625,111.53385162353516 L496.4359130859375,111.93506622314453 L494.9376220703125,112.57613372802734 L493.54791259765625,113.39725494384766 L492.512939453125,114.33128356933594 L492.0187683105469,115.32372283935547 L492.1529541015625,116.31376647949219 L492.944091796875,117.25273895263672 L494.2823181152344,118.0985336303711 L495.95941162109375,118.81845092773438 L497.70294189453125,119.41289520263672 L499.23529052734375,119.90789031982422 L500.3409423828125,120.32821655273438 L500.9058837890625,120.70500946044922 L500.8377990722656,121.06196594238281 L500.102783203125,121.377197265625 L498.748046875,121.6370849609375 L496.9316711425781,121.83493041992188 L494.9054260253906,121.95187377929688 L492.92999267578125,121.98717498779297 L491.1867370605469,121.95523071289062 L489.8634948730469,121.82756042480469 L489.0811767578125,121.6009521484375 L488.887939453125,121.28702545166016 L489.065185546875,120.98365783691406 L489.35760498046875,120.76467895507812 M506.0610046386719,114.05921936035156 L505.984619140625,114.22144317626953 L505.855712890625,114.62228393554688 L505.67242431640625,115.32169342041016 L505.45556640625,116.28874969482422 L505.2015075683594,117.43241882324219 L504.9266357421875,118.6563949584961 L504.6560363769531,119.86542510986328 L504.4525146484375,120.91641998291016 L504.3421630859375,121.67064666748047 L504.34246826171875,122.02739715576172 L504.3975830078125,122.0751953125 L504.4586181640625,121.9703140258789 M507.32476806640625,107.36174774169922 L507.3359375,107.26815795898438 L507.378173828125,107.19232177734375 L507.43414306640625,107.15420532226562 L507.4866943359375,107.17376708984375 M520.145751953125,118.26155090332031 L520.1446533203125,117.94021606445312 L520.030029296875,117.4075927734375 L519.6984252929688,116.74622344970703 L519.059814453125,116.12411499023438 L518.099853515625,115.64997100830078 L516.8607177734375,115.40995788574219 L515.4224853515625,115.44834899902344 L513.9052124023438,115.7952880859375 L512.4532470703125,116.43998718261719 L511.2208251953125,117.3193588256836 L510.35260009765625,118.33748626708984 L509.9580078125,119.35228729248047 L510.08502197265625,120.2104721069336 L510.7479248046875,120.78758239746094 L511.8916320800781,120.97615051269531 L513.43798828125,120.71696472167969 L515.2718505859375,119.99837493896484 L517.2626953125,118.8497543334961 L519.2664184570312,117.33618927001953 L521.1577758789062,115.56017303466797 L522.8165283203125,113.63286590576172 L524.193603515625,111.68400573730469 L525.2675170898438,109.85791778564453 L526.0552978515625,108.30022430419922 L526.5956420898438,107.11672973632812 L526.9017944335938,106.35294342041016 L526.9989624023438,106.03278350830078 L526.9207763671875,106.18096923828125 L526.6565551757812,106.84323120117188 L526.2130126953125,108.04871368408203 L525.614013671875,109.73839569091797 L524.9000244140625,111.74545288085938 L524.2017822265625,113.86808776855469 L523.6823120117188,115.90875244140625 L523.4616088867188,117.72010803222656 L523.6400146484375,119.20726776123047 L524.2442626953125,120.30298614501953 L525.2590942382812,120.96920013427734 L526.6480712890625,121.19775390625 L528.3593139648438,121.013671875 L530.3050537109375,120.47078704833984 L532.3548583984375,119.63249206542969 L534.3431396484375,118.57405853271484 L536.0949096679688,117.38667297363281 L537.457763671875,116.15724182128906 L538.3397216796875,114.99020385742188 L538.7237548828125,113.98587799072266 L538.5894165039062,113.22163391113281 L537.958740234375,112.77079772949219 L536.8654174804688,112.69983673095703 L535.4142456054688,113.0505599975586 L533.782470703125,113.82238006591797 L532.2283935546875,114.95204162597656 L530.996826171875,116.32300567626953 L530.30322265625,117.79829406738281 L530.4383544921875,119.2417984008789 L531.5289306640625,120.52304077148438 L533.5057373046875,121.53057098388672 L535.5653076171875,122.17491912841797 L537.0948486328125,122.485595703125 M572.107177734375,117.06049346923828 L571.9949951171875,116.74371337890625 L571.7536010742188,116.26004028320312 L571.3334350585938,115.71031951904297 L570.6995849609375,115.27261352539062 L569.8056030273438,115.04625701904297 L568.6438598632812,115.1250228881836 L567.2340087890625,115.5752944946289 L565.6826171875,116.43492126464844 L564.1521606445312,117.66663360595703 L562.810302734375,119.1418228149414 L561.80810546875,120.69474792480469 L561.2586669921875,122.14216613769531 L561.19677734375,123.32035064697266 L561.6680908203125,124.09896087646484 L562.6599731445312,124.39167785644531 L564.0940551757812,124.14727020263672 L565.8355712890625,123.39779663085938 L567.703125,122.23135375976562 L569.4885864257812,120.78607177734375 L571.056884765625,119.25030517578125 L572.276611328125,117.83036804199219 L573.10791015625,116.67049407958984 L573.5653076171875,115.88141632080078 L573.719482421875,115.5279312133789 L573.6355590820312,115.63758087158203 L573.34814453125,116.26343536376953 L572.85595703125,117.45362091064453 L572.169677734375,119.14093017578125 L571.3359985351562,121.2148208618164 L570.4577026367188,123.51625061035156 L569.647705078125,125.85828399658203 L568.984130859375,128.0885772705078 L568.53173828125,130.062255859375 L568.2777099609375,131.6288299560547 L568.1741943359375,132.65185546875 L568.155517578125,133.1650390625 M574.6767578125,117.56826782226562 L574.687255859375,117.55076599121094 L574.6925048828125,117.70358276367188 L574.6697998046875,118.18031311035156 L574.625732421875,119.06957244873047 L574.5845947265625,120.28311157226562 L574.614013671875,121.64434051513672 L574.7894287109375,122.9410400390625 L575.1814575195312,123.99089813232422 L575.8189086914062,124.66584777832031 L576.71533203125,124.88232421875 L577.8524169921875,124.58829498291016 L579.191162109375,123.78341674804688 L580.6663818359375,122.5306625366211 L582.2006225585938,120.96693420410156 L583.6746826171875,119.30152130126953 L584.965087890625,117.77627563476562 L585.9785766601562,116.5625228881836 L586.6533203125,115.77203369140625 L586.9838256835938,115.44303131103516 L587.0314331054688,115.57788848876953 L586.841796875,116.18521881103516 L586.4890747070312,117.25248718261719 L586.0435791015625,118.63436126708984 L585.6170654296875,120.14183807373047 L585.3211669921875,121.54129028320312 L585.247802734375,122.64908599853516 L585.321044921875,123.35221862792969 L585.4486694335938,123.69854736328125 M592.909423828125,116.59464263916016 L592.9666748046875,116.64824676513672 L593.029296875,116.89512634277344 L593.0307006835938,117.45516967773438 L592.87841796875,118.3830337524414 L592.5433349609375,119.57879638671875 L592.0662231445312,120.86861419677734 L591.5595703125,122.0478286743164 L591.1376953125,122.95378112792969 L590.8713989257812,123.4747314453125 L590.7684326171875,123.56454467773438 L590.8447875976562,123.18327331542969 L591.133544921875,122.32927703857422 L591.7003173828125,121.07246398925781 L592.5777587890625,119.57877349853516 L593.7720336914062,118.03014373779297 L595.2349243164062,116.60871887207031 L596.9094848632812,115.43205261230469 L598.7230834960938,114.56480407714844 L600.5916748046875,114.0262680053711 L602.4420166015625,113.84736633300781 L604.1878662109375,113.98762512207031 L605.7388916015625,114.35980224609375 L606.874267578125,114.75923919677734 L607.5310668945312,115.05099487304688 M612.4661254882812,116.58187103271484 L612.311767578125,116.38861846923828 L611.958251953125,116.1463394165039 L611.3181762695312,115.9721908569336 L610.3436889648438,116.03475952148438 L609.0357666015625,116.41815185546875 L607.5233154296875,117.16182708740234 L606.0,118.2120590209961 L604.6930541992188,119.45244598388672 L603.7861328125,120.70897674560547 L603.3713989257812,121.79861450195312 L603.4815673828125,122.57403564453125 L604.1202392578125,122.950439453125 L605.239990234375,122.8809814453125 L606.7437744140625,122.35626220703125 L608.5004272460938,121.42485809326172 L610.3323364257812,120.18576049804688 L612.0567626953125,118.81321716308594 L613.5067138671875,117.51814270019531 L614.576416015625,116.46710205078125 L615.2227172851562,115.75825500488281 L615.48779296875,115.4398422241211 L615.4505615234375,115.51695251464844 L615.1912841796875,116.0089340209961 L614.77783203125,116.92243194580078 L614.3116455078125,118.15302276611328 L613.89990234375,119.5190200805664 L613.6574096679688,120.80463409423828 L613.719482421875,121.79070281982422 L614.1254272460938,122.35894012451172 L614.83740234375,122.51445007324219 L615.5682983398438,122.42042541503906 L616.1032104492188,122.25585174560547 M621.7705688476562,116.21085357666016 L621.7754516601562,116.49401092529297 L621.7525634765625,117.10286712646484 L621.6622314453125,118.05391693115234 L621.460205078125,119.2215805053711 L621.1600341796875,120.4312515258789 L620.823486328125,121.52591705322266 L620.5057983398438,122.39080047607422 L620.2784423828125,122.9607925415039 L620.1876220703125,123.16328430175781 L620.2628784179688,122.92654418945312 L620.5643920898438,122.20783233642578 L621.150390625,121.06210327148438 L622.011962890625,119.63970184326172 L623.14111328125,118.14319610595703 L624.4972534179688,116.74932098388672 L626.0291748046875,115.58185577392578 L627.6700439453125,114.71564483642578 L629.3435668945312,114.20182037353516 L630.9329833984375,114.0840835571289 L632.3314208984375,114.3635025024414 L633.4447021484375,115.02010345458984 L634.216064453125,116.00650787353516 L634.617431640625,117.25443267822266 L634.6666259765625,118.69497680664062 L634.4493408203125,120.21562957763672 L634.0739135742188,121.65713500976562 L633.7169189453125,122.74701690673828 L633.4822998046875,123.38317108154297 " fill="none" stroke="black" stroke-linecap="round" stroke-width="1" /></svg>