<?xml version="1.0" encoding="utf-8" ?>
<svg baseProfile="full" height="100%" version="1.1" viewBox="0,0,1000,120" width="100%" xmlns="http://www.w3.org/2000/svg" xmlns:ev="http://www.w3.org/2001/xml-events" xmlns:xlink="http://www.w3.org/1999/xlink"><defs /><rect fill="white" height="120" width="1000" x="0" y="0" /><path d="M0,0 M380.8967590332031,48.24757385253906 L380.865478515625,48.157127380371094 L380.8441162109375,48.06671905517578 L380.85015869140625,48.07914352416992 L380.881591796875,48.35067367553711 L380.88641357421875,49.02580642700195 L380.7884826660156,50.190635681152344 L380.5455627441406,51.852989196777344 L380.1597900390625,53.94451141357422 L379.70074462890625,56.31822204589844 L379.2460632324219,58.800506591796875 L378.86865234375,61.24217224121094 L378.5938415527344,63.505619049072266 L378.42108154296875,65.45806121826172 L378.3273010253906,66.99658966064453 L378.2933654785156,67.99710845947266 L378.2861633300781,68.49500274658203 M388.05352783203125,49.37783432006836 L388.09503173828125,49.336158752441406 L388.129638671875,49.44501495361328 L388.1011657714844,49.8687858581543 L387.9503173828125,50.74351501464844 L387.66943359375,52.057044982910156 L387.3152770996094,53.74637222290039 L386.9384460449219,55.68674087524414 L386.6115417480469,57.770320892333984 L386.3556823730469,59.88853073120117 L386.1560974121094,61.9397087097168 L386.0169372558594,63.82134246826172 L385.916015625,65.4285888671875 L385.8187255859375,66.65574645996094 L385.715576171875,67.45797729492188 L385.62060546875,67.86895751953125 L385.54290771484375,68.00553894042969 M377.67913818359375,61.062564849853516 L377.7342834472656,61.0736083984375 L378.0147705078125,61.06686782836914 L378.67303466796875,61.0119743347168 L379.8042907714844,60.87823486328125 L381.3714599609375,60.65996551513672 L383.2554931640625,60.37193298339844 L385.2906799316406,60.044700622558594 L387.3370361328125,59.712345123291016 L389.2431335449219,59.41044998168945 L390.89605712890625,59.170780181884766 L392.072021484375,59.01756286621094 L392.7294616699219,58.94545364379883 M392.8062744140625,65.45502471923828 L393.2865295410156,65.40921020507812 L394.2079162597656,65.20466613769531 L395.53460693359375,64.7589340209961 L397.0679931640625,64.03972625732422 L398.64276123046875,63.10389709472656 L400.1255187988281,62.03709411621094 L401.41290283203125,60.92282485961914 L402.43939208984375,59.841392517089844 L403.1361083984375,58.8549919128418 L403.4696960449219,58.01311492919922 L403.41180419921875,57.36551284790039 L402.9432678222656,56.963836669921875 L402.0513916015625,56.856685638427734 L400.7603454589844,57.10369873046875 L399.1482849121094,57.7196159362793 L397.3768310546875,58.671241760253906 L395.63604736328125,59.87918472290039 L394.13690185546875,61.242488861083984 L393.0669860839844,62.64607620239258 L392.56494140625,63.99895477294922 L392.72125244140625,65.21449279785156 L393.5657653808594,66.21739959716797 L395.032470703125,66.96160125732422 L397.0813903808594,67.3840103149414 L399.5274963378906,67.45475006103516 L402.1136779785156,67.20258331298828 L404.2223205566406,66.83267974853516 L405.5426025390625,66.51464080810547 M412.5650329589844,48.68135070800781 L412.62109375,48.702999114990234 L412.6983642578125,48.85697937011719 L412.75909423828125,49.255859375 L412.724853515625,49.988895416259766 L412.5547180175781,51.07941436767578 L412.23614501953125,52.512725830078125 L411.815185546875,54.22706985473633 L411.3783264160156,56.130584716796875 L411.0202331542969,58.10634994506836 L410.799560546875,60.02260971069336 L410.7491149902344,61.75654983520508 L410.8599853515625,63.22202682495117 L411.12384033203125,64.35799407958984 L411.5423278808594,65.1162109375 L412.1430358886719,65.45252227783203 L412.9656677246094,65.3289794921875 L414.0304260253906,64.72972869873047 L415.3092041015625,63.68755340576172 L416.7357482910156,62.28116226196289 L418.2298583984375,60.609344482421875 L419.70758056640625,58.78723907470703 L421.0774230957031,56.923397064208984 L422.263671875,55.12120819091797 L423.1849365234375,53.48857498168945 L423.7823181152344,52.11761474609375 L424.04974365234375,51.059852600097656 L424.00982666015625,50.34413528442383 L423.686279296875,49.98048400878906 L423.13092041015625,49.978973388671875 L422.38946533203125,50.37034606933594 L421.497802734375,51.172645568847656 L420.5142822265625,52.37001419067383 L419.5124816894531,53.91690444946289 L418.563720703125,55.73723602294922 L417.74725341796875,57.72248077392578 L417.1595458984375,59.75350570678711 L416.85833740234375,61.694942474365234 L416.87615966796875,63.42176818847656 L417.21685791015625,64.84486389160156 L417.90283203125,65.8707504272461 L418.8805847167969,66.44381713867188 L420.07879638671875,66.57328033447266 L421.146728515625,66.4424057006836 L421.8636474609375,66.24101257324219 M431.1950988769531,60.61565017700195 L431.0423278808594,60.170005798339844 L430.7456359863281,59.510799407958984 L430.2652587890625,58.77703094482422 L429.5950622558594,58.207191467285156 L428.702880859375,57.88615417480469 L427.6108093261719,57.87283706665039 L426.3716125488281,58.17945861816406 L425.1105651855469,58.820011138916016 L423.96905517578125,59.740516662597656 L423.0960693359375,60.8499870300293 L422.6181335449219,62.026763916015625 L422.6269836425781,63.1456184387207 L423.1676940917969,64.08827209472656 L424.2469177246094,64.74555969238281 L425.7995300292969,65.02659606933594 L427.68084716796875,64.88658142089844 L429.68988037109375,64.35054016113281 L431.5936279296875,63.5021858215332 L433.1742858886719,62.46039581298828 L434.2898864746094,61.33479309082031 L434.8928527832031,60.218475341796875 L435.01568603515625,59.18656539916992 L434.776611328125,58.31086349487305 L434.3611145019531,57.665470123291016 L433.9324035644531,57.28878402709961 L433.61956787109375,57.16464614868164 L433.4620361328125,57.192420959472656 L433.41668701171875,57.26750946044922 M451.42352294921875,53.507232666015625 L451.4709777832031,53.193729400634766 L451.55963134765625,52.773380279541016 L451.6749267578125,52.39898681640625 L451.75067138671875,52.26930236816406 L451.73834228515625,52.48591613769531 L451.59075927734375,53.12186813354492 L451.3225402832031,54.20741653442383 L450.9735107421875,55.746726989746094 L450.6099548339844,57.67183303833008 L450.2736511230469,59.83061981201172 L450.0379638671875,62.05030059814453 L449.92218017578125,64.1257095336914 L449.98223876953125,65.87403106689453 L450.2530517578125,67.14126586914062 L450.7602844238281,67.81205749511719 L451.5029602050781,67.83326721191406 L452.4591064453125,67.2088394165039 L453.525146484375,66.01513671875 L454.6058044433594,64.39842224121094 L455.59515380859375,62.56791305541992 L456.4056091308594,60.75786209106445 L457.0011901855469,59.18337631225586 L457.3903503417969,57.97834396362305 L457.59991455078125,57.225013732910156 L457.68450927734375,56.943275451660156 L457.6871643066406,57.15660095214844 L457.6227111816406,57.887516021728516 L457.5245361328125,59.11258316040039 L457.4455261230469,60.707176208496094 L457.4609680175781,62.48093032836914 L457.6612854003906,64.1810302734375 L458.1217041015625,65.59272766113281 L458.8621520996094,66.5611572265625 L459.871337890625,66.99735260009766 L461.10015869140625,66.85663604736328 L462.47540283203125,66.14247131347656 L463.91448974609375,64.87947845458984 L465.345703125,63.146427154541016 L466.6962890625,61.05610275268555 L467.8993835449219,58.755226135253906 L468.9096374511719,56.41485595703125 L469.68560791015625,54.21455383300781 L470.19293212890625,52.29934310913086 L470.42889404296875,50.80242156982422 L470.4403076171875,49.80034637451172 L470.3004150390625,49.286705017089844 L470.1341552734375,49.12592315673828 L470.01788330078125,49.1512565612793 M475.4416809082031,59.81029510498047 L475.29058837890625,59.49317932128906 L475.01202392578125,59.03916931152344 L474.5866394042969,58.57987976074219 L474.0013122558594,58.315940856933594 L473.2239685058594,58.340538024902344 L472.2574157714844,58.72172927856445 L471.1461486816406,59.47755813598633 L469.9930419921875,60.58870315551758 L468.9640808105469,61.97721862792969 L468.228515625,63.50325012207031 L467.9478454589844,64.99476623535156 L468.2277526855469,66.27761840820312 L469.0644836425781,67.19598388671875 L470.36248779296875,67.63754272460938 L471.99163818359375,67.55008697509766 L473.7840270996094,66.93936920166016 L475.55181884765625,65.8787612915039 L477.1208801269531,64.49372100830078 L478.3218688964844,62.948604583740234 L479.0447998046875,61.41399002075195 L479.2672119140625,60.039058685302734 L479.04449462890625,58.912174224853516 L478.4737548828125,58.08863830566406 L477.69732666015625,57.60947036743164 L476.86627197265625,57.48091506958008 L476.125244140625,57.65977096557617 L475.60894775390625,57.96013641357422 L475.34228515625,58.21891784667969 M483.351806640625,58.11310958862305 L483.33721923828125,58.083961486816406 L483.3065490722656,58.19610595703125 L483.2373046875,58.59391403198242 L483.10467529296875,59.3925895690918 L482.88226318359375,60.57096862792969 L482.57794189453125,62.01415252685547 L482.2347412109375,63.54719543457031 L481.91131591796875,64.96935272216797 L481.67376708984375,66.1234359741211 L481.5455322265625,66.8974838256836 L481.5088806152344,67.22195434570312 L481.54425048828125,67.07427215576172 L481.63525390625,66.45352935791016 L481.7607116699219,65.389404296875 L481.9549560546875,64.02347564697266 L482.23760986328125,62.52784729003906 L482.6383056640625,61.0672492980957 L483.2143859863281,59.76072692871094 L484.0008239746094,58.65143585205078 L484.99676513671875,57.74464416503906 L486.1813049316406,57.06779861450195 L487.49365234375,56.64540481567383 L488.8544921875,56.4770622253418 L490.2137451171875,56.51293182373047 L491.49884033203125,56.66151428222656 L492.63848876953125,56.81939697265625 L493.46771240234375,56.92279052734375 L493.94244384765625,56.96382141113281 M498.295166015625,47.939849853515625 L498.3824462890625,48.051124572753906 L498.45489501953125,48.388336181640625 L498.430419921875,49.075984954833984 L498.213134765625,50.180519104003906 L497.78668212890625,51.69707489013672 L497.18896484375,53.574806213378906 L496.50250244140625,55.71971130371094 L495.8129577636719,58.02462387084961 L495.21966552734375,60.369972229003906 L494.78125,62.61806869506836 L494.529296875,64.6375961303711 L494.5589599609375,66.28968048095703 L494.9217834472656,67.45979309082031 L495.613037109375,68.11595916748047 L496.3583984375,68.36707305908203 L496.9276428222656,68.38333892822266 M507.84906005859375,62.24680709838867 L507.86822509765625,61.8160285949707 L507.81463623046875,61.11166763305664 L507.59442138671875,60.24627685546875 L507.11749267578125,59.44546127319336 L506.33514404296875,58.82773208618164 L505.2584228515625,58.48683166503906 L503.9281005859375,58.48486328125 L502.431884765625,58.86843490600586 L500.8908386230469,59.65142059326172 L499.45916748046875,60.78715133666992 L498.28338623046875,62.166927337646484 L497.4979248046875,63.63655471801758 L497.2001037597656,65.0397720336914 L497.45794677734375,66.21102905273438 L498.2742919921875,66.99308776855469 L499.60614013671875,67.26087188720703 L501.32135009765625,66.94746398925781 L503.230224609375,66.04925537109375 L505.15179443359375,64.65476989746094 L506.9391784667969,62.87338638305664 L508.48968505859375,60.82520294189453 L509.78106689453125,58.638153076171875 L510.79522705078125,56.448272705078125 L511.53436279296875,54.40230178833008 L512.0269775390625,52.656517028808594 L512.3125610351562,51.3073844909668 L512.427978515625,50.408538818359375 L512.4264526367188,49.98463821411133 L512.3199462890625,50.05590057373047 L512.1119384765625,50.65874481201172 L511.8048095703125,51.8213005065918 L511.42291259765625,53.498565673828125 L511.00531005859375,55.56991958618164 L510.6273193359375,57.862709045410156 L510.330810546875,60.17670440673828 L510.1688537597656,62.35863494873047 L510.1671142578125,64.28075408935547 L510.3257751464844,65.85218811035156 L510.5364990234375,66.92042541503906 L510.71923828125,67.49446105957031 M537.7660522460938,50.52378463745117 L537.7111206054688,50.179283142089844 L537.4849853515625,49.68230056762695 L536.9740600585938,49.154170989990234 L536.1068115234375,48.78779220581055 L534.875,48.643089294433594 L533.3187866210938,48.75107192993164 L531.5723266601562,49.096397399902344 L529.8397827148438,49.67194747924805 L528.3709106445312,50.4390869140625 L527.4039916992188,51.35179138183594 L527.0820922851562,52.35817337036133 L527.4335327148438,53.410160064697266 L528.420654296875,54.47529602050781 L529.9484252929688,55.541812896728516 L531.8768310546875,56.595455169677734 L533.9993896484375,57.643062591552734 L536.07177734375,58.69327163696289 L537.849853515625,59.75186538696289 L539.141845703125,60.82669448852539 L539.8416137695312,61.923309326171875 L539.916748046875,63.01052474975586 L539.3779296875,64.05401611328125 L538.2951049804688,64.98553466796875 L536.77099609375,65.7342300415039 L534.9263305664062,66.23999786376953 L532.9053344726562,66.48774719238281 L530.8388061523438,66.48689270019531 L528.8660278320312,66.26241302490234 L527.14892578125,65.85989379882812 L525.8156127929688,65.35514831542969 L524.97021484375,64.90591430664062 L524.568603515625,64.61132049560547 M548.4327392578125,58.98127746582031 L548.3580322265625,58.717262268066406 L548.145751953125,58.32695388793945 L547.7260131835938,57.90587615966797 L547.04931640625,57.6153678894043 L546.1136474609375,57.54012680053711 L544.9439086914062,57.75711441040039 L543.631103515625,58.315162658691406 L542.3064575195312,59.2335090637207 L541.1473999023438,60.4699821472168 L540.3193359375,61.9090690612793 L539.95751953125,63.38439178466797 L540.1168212890625,64.71607971191406 L540.811279296875,65.74504852294922 L541.9829711914062,66.3560562133789 L543.5458984375,66.4894790649414 L545.3589477539062,66.1365737915039 L547.2357177734375,65.34510040283203 L548.9856567382812,64.21784210205078 L550.4251708984375,62.888065338134766 L551.4025268554688,61.521968841552734 L551.8672485351562,60.275840759277344 L551.8626708984375,59.27102279663086 L551.5067749023438,58.57807922363281 L550.9856567382812,58.26631546020508 L550.4510498046875,58.330047607421875 L550.0029296875,58.724246978759766 L549.710205078125,59.20749282836914 L549.5657958984375,59.59136962890625 M565.2153930664062,47.958824157714844 L565.1121215820312,47.28404235839844 L564.8595581054688,46.374629974365234 L564.3985595703125,45.49732971191406 L563.715576171875,45.017967224121094 L562.8255615234375,45.0 L561.773193359375,45.46887969970703 L560.6231689453125,46.39463806152344 L559.444091796875,47.8183708190918 L558.3101806640625,49.732383728027344 L557.2816772460938,52.07493591308594 L556.4130859375,54.7395133972168 L555.7020263671875,57.599609375 L555.141845703125,60.5362663269043 L554.6831665039062,63.45890426635742 L554.3009033203125,66.27114868164062 L553.9708251953125,68.81790161132812 L553.7156372070312,70.91197204589844 L553.5348510742188,72.40071868896484 L553.4398193359375,73.24531555175781 L553.402587890625,73.58486938476562 M552.1865234375,60.66273498535156 L552.4890747070312,60.353092193603516 L553.1753540039062,59.88604736328125 L554.310546875,59.348636627197266 L555.8828125,58.86707305908203 L557.7706298828125,58.45768737792969 L559.75634765625,58.113460540771484 L561.3641357421875,57.85430908203125 L562.3658447265625,57.69820785522461 M567.0000610351562,56.43092727661133 L566.9797973632812,56.72530746459961 L566.8555908203125,57.3189582824707 L566.5668334960938,58.248497009277344 L566.0956420898438,59.45695495605469 L565.5140380859375,60.8933219909668 L564.9071655273438,62.45415115356445 L564.385009765625,64.00199127197266 L564.0296630859375,65.36968231201172 L563.8638916015625,66.4217529296875 L563.8333740234375,67.07022094726562 L563.86865234375,67.36979675292969 M567.9027709960938,51.254390716552734 L567.9717407226562,51.24112319946289 L568.1273193359375,51.306884765625 L568.3101196289062,51.42059326171875 L568.4609985351562,51.55118942260742 M578.4055786132812,59.47500228881836 L578.3807373046875,59.13727951049805 L578.2844848632812,58.60201644897461 L578.04296875,57.96979904174805 L577.588623046875,57.442867279052734 L576.8641357421875,57.14561080932617 L575.8428955078125,57.181983947753906 L574.57958984375,57.61008071899414 L573.1885986328125,58.44924545288086 L571.8145751953125,59.64627456665039 L570.6318359375,61.086753845214844 L569.7786865234375,62.6083984375 L569.3446044921875,64.04515838623047 L569.390869140625,65.24032592773438 L569.9237670898438,66.08406829833984 L570.90087890625,66.49085998535156 L572.2388305664062,66.41383361816406 L573.8208618164062,65.85505676269531 L575.4866943359375,64.88324737548828 L577.1011352539062,63.604408264160156 L578.5414428710938,62.180335998535156 L579.7305908203125,60.75872039794922 L580.6205444335938,59.49911880493164 L581.2271118164062,58.50283432006836 L581.5670166015625,57.82761764526367 L581.6883544921875,57.496437072753906 L581.6345825195312,57.54207992553711 L581.429931640625,57.98117446899414 L581.078369140625,58.857666015625 L580.626953125,60.10719299316406 L580.1305541992188,61.58684539794922 L579.6715698242188,63.11687469482422 L579.3928833007812,64.49738311767578 L579.38037109375,65.55706024169922 L579.65478515625,66.22130584716797 L580.0394287109375,66.52701568603516 L580.3652954101562,66.59364318847656 M586.8067016601562,58.08342361450195 L586.9139404296875,57.822792053222656 L587.0473022460938,57.53857421875 L587.1392822265625,57.389198303222656 L587.1058349609375,57.57675552368164 L586.901611328125,58.16031265258789 L586.5095825195312,59.14567947387695 L585.96142578125,60.444129943847656 L585.3049926757812,61.92204666137695 L584.62353515625,63.37297439575195 L584.026611328125,64.60791015625 L583.5948486328125,65.49279022216797 L583.3907470703125,65.94805908203125 L583.4305419921875,65.91728210449219 L583.7088623046875,65.3841323852539 L584.22119140625,64.3740463256836 L584.962646484375,63.001121520996094 L585.9130859375,61.44268798828125 L587.0473022460938,59.881103515625 L588.3124389648438,58.454612731933594 L589.639892578125,57.26488494873047 L590.9624633789062,56.3747673034668 L592.1903076171875,55.84421157836914 L593.2443237304688,55.721214294433594 L594.0667724609375,56.029014587402344 L594.626220703125,56.74380111694336 L594.9041748046875,57.79963302612305 L594.913818359375,59.09364318847656 L594.6803588867188,60.509788513183594 L594.2832641601562,61.93043518066406 L593.82568359375,63.270328521728516 L593.421875,64.43911743164062 L593.229736328125,65.30223083496094 L593.3427734375,65.75013732910156 L593.7775268554688,65.74531555175781 L594.3092651367188,65.48616027832031 L594.7371826171875,65.19544982910156 M597.8533325195312,62.23398971557617 L598.1046142578125,62.19253921508789 L598.6109619140625,62.03274917602539 L599.3863525390625,61.676876068115234 L600.3514404296875,61.08339309692383 L601.4158935546875,60.264495849609375 L602.4840087890625,59.26973342895508 L603.473388671875,58.18571472167969 L604.2849731445312,57.1231575012207 L604.8104248046875,56.17451477050781 L604.96435546875,55.43672561645508 L604.6787109375,54.97795486450195 L603.9453125,54.85526657104492 L602.8353271484375,55.11606216430664 L601.47998046875,55.79190444946289 L600.0454711914062,56.84929275512695 L598.7344970703125,58.217384338378906 L597.728759765625,59.776187896728516 L597.1890258789062,61.393157958984375 L597.2535400390625,62.90840148925781 L598.0108032226562,64.17731475830078 L599.4834594726562,65.08129119873047 L601.5794677734375,65.58192443847656 L604.1649169921875,65.6770248413086 L606.9725341796875,65.43894958496094 L609.7000122070312,64.94584655761719 L611.788818359375,64.43247985839844 L613.0277709960938,64.0518798828125 M628.4097900390625,49.694820404052734 L628.4717407226562,49.81087875366211 L628.5416259765625,50.112098693847656 L628.5777587890625,50.674957275390625 L628.5382690429688,51.527889251708984 L628.4029541015625,52.660972595214844 L628.1629638671875,54.048179626464844 L627.8276977539062,55.66051483154297 L627.4014892578125,57.43658447265625 L626.911865234375,59.29808044433594 L626.4073486328125,61.15025329589844 L625.9253540039062,62.89768600463867 L625.49267578125,64.41685485839844 L625.1290283203125,65.59890747070312 L624.8491821289062,66.36769104003906 L624.6695556640625,66.74876403808594 L624.5825805664062,66.85979461669922 M618.8028564453125,48.14103698730469 L618.9154052734375,48.081825256347656 L619.2643432617188,48.012855529785156 L619.9713745117188,47.9566535949707 L621.1112060546875,47.932395935058594 L622.6826782226562,47.91018295288086 L624.641845703125,47.85899353027344 L626.9039306640625,47.76978302001953 L629.40771484375,47.666473388671875 L632.0,47.59098815917969 L634.4920654296875,47.573219299316406 L636.4075927734375,47.5969123840332 L637.551025390625,47.63322067260742 M635.2769775390625,63.680885314941406 L635.4491577148438,63.7498893737793 L635.8499755859375,63.77354049682617 L636.529052734375,63.65986633300781 L637.458251953125,63.31814193725586 L638.570068359375,62.747520446777344 L639.77392578125,61.98018264770508 L640.9940185546875,61.08879852294922 L642.1455078125,60.133941650390625 L643.1290893554688,59.168277740478516 L643.8480224609375,58.238075256347656 L644.221435546875,57.40081024169922 L644.1876831054688,56.7083854675293 L643.74609375,56.236854553222656 L642.9124755859375,56.0654182434082 L641.7530517578125,56.26010513305664 L640.3639526367188,56.84888458251953 L638.877197265625,57.815673828125 L637.444091796875,59.07708740234375 L636.2293701171875,60.515419006347656 L635.3695068359375,62.00365447998047 L634.997314453125,63.42788314819336 L635.1747436523438,64.67949676513672 L635.900390625,65.68876647949219 L637.2012329101562,66.35647583007812 L638.9801635742188,66.62923431396484 L641.052001953125,66.51614379882812 L642.8468017578125,66.2242660522461 L644.0240478515625,65.93756103515625 M655.0677490234375,56.665836334228516 L654.7838745117188,56.36455535888672 L654.1382446289062,56.017826080322266 L653.0628662109375,55.80366897583008 L651.65087890625,55.915252685546875 L650.0947265625,56.33401107788086 L648.6658935546875,56.98404312133789 L647.6263427734375,57.75475311279297 L647.170654296875,58.5810661315918 L647.3887329101562,59.42915725708008 L648.2615966796875,60.27509689331055 L649.6392822265625,61.1019401550293 L651.2783813476562,61.90885543823242 L652.8997802734375,62.68860626220703 L654.2464599609375,63.43313980102539 L655.132080078125,64.13323211669922 L655.453857421875,64.76467895507812 L655.170654296875,65.32538604736328 L654.31005859375,65.81158447265625 L652.9720458984375,66.20380401611328 L651.3231201171875,66.4759750366211 L649.5708618164062,66.61073303222656 L647.9190673828125,66.58416748046875 L646.5289306640625,66.41802215576172 L645.6131591796875,66.087646484375 L645.3052978515625,65.5832290649414 L645.6404418945312,64.91619873046875 L646.26513671875,64.29232788085938 L646.84619140625,63.84644317626953 M664.8345947265625,49.746124267578125 L664.8624267578125,49.80910873413086 L664.8642578125,50.06355285644531 L664.7969970703125,50.62417984008789 L664.6080932617188,51.55354309082031 L664.2860717773438,52.827293395996094 L663.8265380859375,54.386085510253906 L663.2509765625,56.15655517578125 L662.6023559570312,58.06596755981445 L661.94873046875,60.036346435546875 L661.3526611328125,61.97357177734375 L660.8670043945312,63.77092361450195 L660.5250244140625,65.29415893554688 L660.3443603515625,66.42432403564453 L660.283935546875,67.10272979736328 L660.2938232421875,67.39779663085938 " fill="none" stroke="black" stroke-linecap="round" stroke-width="1" /></svg>