<?xml version="1.0" encoding="utf-8" ?>
<svg baseProfile="full" height="100%" version="1.1" viewBox="0,0,1000,120" width="100%" xmlns="http://www.w3.org/2000/svg" xmlns:ev="http://www.w3.org/2001/xml-events" xmlns:xlink="http://www.w3.org/1999/xlink"><defs /><rect fill="white" height="120" width="1000" x="0" y="0" /><path d="M0,0 M439.6485290527344,48.24619674682617 L439.51959228515625,47.809696197509766 L439.2347412109375,47.13812255859375 L438.73370361328125,46.355255126953125 L437.9710388183594,45.683570861816406 L436.8815612792969,45.20672607421875 L435.4737243652344,45.0 L433.794189453125,45.09224319458008 L431.9488830566406,45.5106086730957 L430.10650634765625,46.23736572265625 L428.4512023925781,47.22875213623047 L427.1540222167969,48.41659927368164 L426.3744812011719,49.74460220336914 L426.1893310546875,51.14568328857422 L426.6346130371094,52.550167083740234 L427.71258544921875,53.893043518066406 L429.369384765625,55.1336555480957 L431.4886474609375,56.26011657714844 L433.8716125488281,57.30453109741211 L436.2529602050781,58.30461502075195 L438.37152099609375,59.29182815551758 L440.02911376953125,60.286277770996094 L441.115966796875,61.2845458984375 L441.5951232910156,62.26712417602539 L441.4714050292969,63.221614837646484 L440.7552490234375,64.117431640625 L439.45867919921875,64.91102600097656 L437.621337890625,65.55033111572266 L435.3289489746094,65.97190856933594 L432.713623046875,66.13227844238281 L429.97161865234375,66.03485107421875 L427.29412841796875,65.71495056152344 L424.92254638671875,65.2120361328125 L423.0684814453125,64.59457397460938 L421.8612060546875,63.93223571777344 L421.25567626953125,63.3881721496582 L421.0755615234375,63.04691696166992 M450.13531494140625,58.582313537597656 L449.91851806640625,58.250144958496094 L449.5099792480469,57.73346710205078 L448.8875732421875,57.144161224365234 L448.0693359375,56.68288803100586 L447.0353088378906,56.46369552612305 L445.8058776855469,56.58537292480469 L444.45684814453125,57.08027648925781 L443.1146240234375,57.94881820678711 L441.9388427734375,59.135013580322266 L441.0854187011719,60.52725601196289 L440.67633056640625,61.973411560058594 L440.7845153808594,63.319358825683594 L441.44781494140625,64.40583801269531 L442.6250915527344,65.10687255859375 L444.20654296875,65.34375 L446.0298767089844,65.10826110839844 L447.8916931152344,64.44151306152344 L449.57794189453125,63.4374885559082 L450.918212890625,62.21379089355469 L451.7877197265625,60.89497375488281 L452.13934326171875,59.59772872924805 L452.00225830078125,58.43821334838867 L451.464599609375,57.496028900146484 L450.67791748046875,56.837669372558594 L449.8367004394531,56.48645782470703 L449.12078857421875,56.4144172668457 L448.6580810546875,56.49378204345703 L448.4466247558594,56.609527587890625 M464.694580078125,49.39643859863281 L464.51055908203125,48.69594192504883 L464.1093444824219,47.70942306518555 L463.4502868652344,46.69416427612305 L462.553955078125,46.03887939453125 L461.45806884765625,45.85539245605469 L460.2253112792969,46.19959259033203 L458.9505310058594,47.03840637207031 L457.7406005859375,48.358184814453125 L456.70513916015625,50.07372283935547 L455.91107177734375,52.093017578125 L455.37335205078125,54.33185577392578 L455.08038330078125,56.735877990722656 L454.99346923828125,59.23305130004883 L455.0768737792969,61.747833251953125 L455.282958984375,64.15326690673828 L455.55535888671875,66.30914306640625 L455.83154296875,68.07374572753906 L456.078125,69.36466979980469 L456.2494812011719,70.13594055175781 L456.34521484375,70.48577880859375 M452.7103576660156,59.55029296875 L452.8824768066406,59.545196533203125 L453.3592224121094,59.53033447265625 L454.2749938964844,59.48820114135742 L455.6605529785156,59.39918518066406 L457.42559814453125,59.231483459472656 L459.4225158691406,58.97614288330078 L461.47113037109375,58.63459396362305 L463.45208740234375,58.22529220581055 L465.262939453125,57.78616714477539 L466.801513671875,57.36654281616211 L467.96380615234375,56.99472427368164 L468.6939392089844,56.70814895629883 L469.0030822753906,56.547428131103516 L468.9910888671875,56.56595230102539 L468.75775146484375,56.83675765991211 L468.39190673828125,57.41926193237305 L467.9648132324219,58.30845642089844 L467.5330810546875,59.45573043823242 L467.16192626953125,60.77348709106445 L466.8783264160156,62.1523323059082 L466.6947937011719,63.488861083984375 L466.6004638671875,64.67188262939453 L466.5770263671875,65.60809326171875 L466.62310791015625,66.15784454345703 L466.7484130859375,66.23954010009766 L466.9237060546875,65.85202026367188 L467.0957336425781,65.29154205322266 L467.2192077636719,64.8067626953125 M468.3548278808594,49.5756950378418 L468.40032958984375,49.396522521972656 L468.46514892578125,49.19013977050781 L468.52752685546875,49.01873779296875 L468.59649658203125,48.96228790283203 L468.6987609863281,48.99266052246094 L468.8714599609375,49.0886344909668 L469.06304931640625,49.18864440917969 L469.21881103515625,49.27230453491211 M478.84539794921875,55.779937744140625 L478.66522216796875,55.6441535949707 L478.2847595214844,55.454986572265625 L477.67059326171875,55.29151916503906 L476.849365234375,55.27973175048828 L475.85748291015625,55.50898361206055 L474.74212646484375,56.03034591674805 L473.5686340332031,56.8549919128418 L472.41241455078125,57.96021270751953 L471.3677062988281,59.2901496887207 L470.5371398925781,60.7520637512207 L470.022216796875,62.22414779663086 L469.89984130859375,63.55683517456055 L470.19488525390625,64.60352325439453 L470.87567138671875,65.25082397460938 L471.8758544921875,65.4249496459961 L473.11602783203125,65.08965301513672 L474.52130126953125,64.2581558227539 L476.0088806152344,62.988616943359375 L477.4775695800781,61.3948860168457 L478.81298828125,59.65342330932617 L479.90850830078125,57.9575309753418 L480.708984375,56.47887420654297 L481.2156066894531,55.326316833496094 L481.4675598144531,54.54387664794922 L481.5317077636719,54.155086517333984 L481.455810546875,54.19285202026367 L481.2655029296875,54.69425964355469 L480.98455810546875,55.66648864746094 L480.65289306640625,57.02695846557617 L480.3222961425781,58.62990951538086 L480.0582580566406,60.30584716796875 L479.9287414550781,61.8985595703125 L479.9694519042969,63.28028869628906 L480.1693115234375,64.36943054199219 L480.4147644042969,65.0748062133789 L480.6101989746094,65.42778015136719 M486.51605224609375,55.13581848144531 L486.55499267578125,55.188087463378906 L486.6009826660156,55.455894470214844 L486.60992431640625,56.0770149230957 L486.520263671875,57.118186950683594 L486.30645751953125,58.506656646728516 L485.9756164550781,60.10529327392578 L485.587158203125,61.7184944152832 L485.2268981933594,63.16748809814453 L484.9446716308594,64.31603240966797 L484.76641845703125,65.07264709472656 L484.70501708984375,65.37699890136719 L484.748291015625,65.2059097290039 L484.9280090332031,64.53324127197266 L485.2763366699219,63.38508987426758 L485.80047607421875,61.87019729614258 L486.50958251953125,60.15436553955078 L487.3961181640625,58.41410827636719 L488.4373779296875,56.81884765625 L489.6134033203125,55.489173889160156 L490.8616027832031,54.51927947998047 L492.10174560546875,53.98133850097656 L493.25164794921875,53.91701889038086 L494.2327880859375,54.32004928588867 L494.9911804199219,55.170963287353516 L495.4921875,56.40572738647461 L495.72869873046875,57.923885345458984 L495.7210388183594,59.581878662109375 L495.54522705078125,61.20808792114258 L495.3052978515625,62.61647033691406 L495.1063232421875,63.6864013671875 L494.9945373535156,64.34264373779297 L494.9656982421875,64.64368438720703 M498.89630126953125,60.64417266845703 L499.3214416503906,60.394466400146484 L500.0943298339844,59.91223907470703 L501.16973876953125,59.18828582763672 L502.371826171875,58.2955436706543 L503.570068359375,57.2962760925293 L504.6315002441406,56.27726364135742 L505.4518737792969,55.31602478027344 L505.9594421386719,54.487056732177734 L506.08526611328125,53.843318939208984 L505.80584716796875,53.436309814453125 L505.11773681640625,53.326778411865234 L504.0625915527344,53.59056854248047 L502.7353210449219,54.274253845214844 L501.29656982421875,55.367733001708984 L499.9160461425781,56.79506301879883 L498.7971496582031,58.4350700378418 L498.102783203125,60.150943756103516 L497.9714050292969,61.81370162963867 L498.4676513671875,63.288814544677734 L499.7097473144531,64.41838836669922 L501.6441650390625,65.09756469726562 L504.08917236328125,65.30191802978516 L506.2896423339844,65.2110824584961 L507.77777099609375,65.02994537353516 M524.408203125,50.275123596191406 L524.2162475585938,50.78276443481445 L523.9039306640625,51.74819564819336 L523.5021362304688,53.15180969238281 L523.0771484375,54.81536865234375 L522.6549072265625,56.61664962768555 L522.2442626953125,58.45811462402344 L521.8591918945312,60.24973678588867 L521.5491943359375,61.87904739379883 L521.344970703125,63.212825775146484 L521.2478637695312,64.15220642089844 L521.2300415039062,64.67851257324219 L521.24462890625,64.89127349853516 M524.658447265625,47.82518005371094 L524.665771484375,48.00074768066406 L524.7427368164062,48.41773223876953 L524.9500122070312,49.107826232910156 L525.343017578125,49.972354888916016 L525.946044921875,50.84244155883789 L526.7639770507812,51.54871368408203 L527.7999267578125,51.965293884277344 L529.0401611328125,52.014015197753906 L530.4511108398438,51.67610168457031 L531.956787109375,50.969749450683594 L533.4590454101562,49.97481155395508 L534.8471069335938,48.83148193359375 L536.03466796875,47.71558380126953 L536.948974609375,46.76353454589844 L537.5712890625,46.07208251953125 L537.9129028320312,45.70830535888672 L538.01318359375,45.71437072753906 L537.9149780273438,46.14752960205078 L537.6314697265625,47.06938171386719 L537.165283203125,48.47312927246094 L536.54931640625,50.26886749267578 L535.8748168945312,52.31950378417969 L535.251220703125,54.441463470458984 L534.8142700195312,56.480323791503906 L534.633544921875,58.32572555541992 L534.7247314453125,59.910953521728516 L535.0362548828125,61.194053649902344 L535.5386962890625,62.15966796875 L536.1597290039062,62.797908782958984 L536.8609008789062,63.13507843017578 L537.46044921875,63.25328826904297 L537.8587646484375,63.25594711303711 M542.3876953125,60.832244873046875 L542.69580078125,60.56260299682617 L543.2843017578125,60.04404067993164 L544.131103515625,59.2744140625 L545.1073608398438,58.336002349853516 L546.0880737304688,57.294837951660156 L546.9413452148438,56.22641372680664 L547.576171875,55.208702087402344 L547.9532470703125,54.31403732299805 L548.044189453125,53.599361419677734 L547.848876953125,53.11618423461914 L547.357666015625,52.90847396850586 L546.551025390625,53.019901275634766 L545.4695434570312,53.493412017822266 L544.2218627929688,54.33653259277344 L542.959228515625,55.499576568603516 L541.85546875,56.90151596069336 L541.0707397460938,58.433738708496094 L540.7130126953125,59.984519958496094 L540.8621826171875,61.44337844848633 L541.5409545898438,62.69223403930664 L542.7179565429688,63.61914825439453 L544.2974853515625,64.14606475830078 L546.1583251953125,64.24992370605469 L548.2030639648438,63.90626525878906 L550.2924194335938,63.167762756347656 L552.2723388671875,62.13692092895508 L553.7843017578125,61.17227554321289 L554.6810302734375,60.504295349121094 M559.79638671875,55.77580261230469 L559.6023559570312,55.552330017089844 L559.2056274414062,55.28015899658203 L558.5529174804688,55.08747100830078 L557.6370849609375,55.141693115234375 L556.4591064453125,55.50754928588867 L555.1072998046875,56.20261001586914 L553.7334594726562,57.19283676147461 L552.5264282226562,58.41535186767578 L551.6627197265625,59.756065368652344 L551.252197265625,61.07133102416992 L551.3353881835938,62.213218688964844 L551.9012451171875,63.043983459472656 L552.8870239257812,63.458011627197266 L554.19970703125,63.38508224487305 L555.71630859375,62.81241226196289 L557.301513671875,61.790340423583984 L558.828125,60.397315979003906 L560.1990966796875,58.73005676269531 L561.3510131835938,56.88792037963867 L562.2674560546875,54.962486267089844 L562.9603881835938,53.05755615234375 L563.4638671875,51.282867431640625 L563.806396484375,49.72986602783203 L564.0238037109375,48.48036575317383 L564.14306640625,47.58289337158203 L564.1859741210938,47.060096740722656 L564.1759033203125,46.93218994140625 L564.1217041015625,47.214149475097656 L564.0140991210938,47.92253875732422 L563.8622436523438,49.06306838989258 L563.6696166992188,50.5900993347168 L563.447509765625,52.41445541381836 L563.2130126953125,54.42279815673828 L562.9952392578125,56.490943908691406 L562.8132934570312,58.495182037353516 L562.71484375,60.30729675292969 L562.7211303710938,61.78874969482422 L562.840087890625,62.84129333496094 L562.9945678710938,63.442901611328125 L563.126220703125,63.6904411315918 M568.6614990234375,55.42265701293945 L568.6532592773438,55.398494720458984 L568.673583984375,55.4830207824707 L568.7363891601562,55.796993255615234 L568.8309936523438,56.431400299072266 L568.9105224609375,57.379554748535156 L568.9515991210938,58.62345504760742 L568.9588623046875,60.11705780029297 L568.9493408203125,61.80513381958008 L568.9486083984375,63.63912582397461 L568.9349975585938,65.53858184814453 L568.85595703125,67.41110229492188 L568.658203125,69.19279479980469 L568.2848510742188,70.79197692871094 L567.7080078125,72.11763763427734 L566.9553833007812,73.11479187011719 L566.0549926757812,73.68448638916016 L565.093994140625,73.79081726074219 L564.1786499023438,73.48455810546875 L563.4844970703125,73.02291870117188 L563.0789794921875,72.6245346069336 M568.79248046875,48.42872619628906 L568.8385620117188,48.47997283935547 L568.9698486328125,48.68177795410156 L569.13427734375,48.95203399658203 L569.2796630859375,49.208621978759766 M574.3097534179688,56.09410858154297 L574.3017578125,56.48859405517578 L574.2705078125,57.25675582885742 L574.184814453125,58.38288116455078 L574.0328369140625,59.70338439941406 L573.84228515625,61.063480377197266 L573.6478881835938,62.304283142089844 L573.499755859375,63.28834915161133 L573.4290161132812,63.92870330810547 L573.4180908203125,64.16197204589844 L573.4617919921875,63.964088439941406 L573.5771484375,63.341304779052734 L573.7863159179688,62.33488845825195 L574.1326904296875,61.00243377685547 L574.6477661132812,59.465614318847656 L575.3408813476562,57.85896301269531 L576.224853515625,56.32166290283203 L577.3060302734375,54.968055725097656 L578.5955810546875,53.88284683227539 L580.0756225585938,53.11503982543945 L581.748779296875,52.74147033691406 L583.540771484375,52.7718620300293 L585.32568359375,53.147979736328125 L586.7340698242188,53.621952056884766 L587.599609375,53.996883392333984 M591.7998046875,57.68415069580078 L591.683349609375,57.38393020629883 L591.412109375,56.89107894897461 L590.9293823242188,56.30344009399414 L590.2147216796875,55.81397247314453 L589.255126953125,55.55669403076172 L588.0843505859375,55.63602828979492 L586.7839965820312,56.09508514404297 L585.4617309570312,56.921043395996094 L584.259765625,58.04917907714844 L583.3297119140625,59.35712432861328 L582.768798828125,60.68301773071289 L582.6314086914062,61.86452102661133 L582.9229736328125,62.754310607910156 L583.5993041992188,63.24005889892578 L584.5921020507812,63.253597259521484 L585.8336791992188,62.7818489074707 L587.2114868164062,61.86050033569336 L588.610595703125,60.597625732421875 L589.911865234375,59.132354736328125 L591.0107421875,57.65498733520508 L591.8263549804688,56.34709548950195 L592.3485107421875,55.33206558227539 L592.6002197265625,54.67149353027344 L592.6442260742188,54.3983154296875 L592.5269775390625,54.5085334777832 L592.2764892578125,55.042877197265625 L591.9151611328125,56.019508361816406 L591.5020141601562,57.368446350097656 L591.1200561523438,58.953521728515625 L590.8756103515625,60.59176254272461 L590.8466186523438,62.08604431152344 L591.1229858398438,63.24390411376953 L591.720947265625,63.9363899230957 L592.5858764648438,64.1196517944336 L593.4124755859375,63.989376068115234 L593.9935302734375,63.765281677246094 M597.929443359375,54.8183479309082 L597.9630126953125,54.752647399902344 L598.0086669921875,54.809967041015625 L598.0310668945312,55.132667541503906 L597.9761962890625,55.84872055053711 L597.8016967773438,56.93043518066406 L597.50830078125,58.28643035888672 L597.1232299804688,59.755271911621094 L596.7332763671875,61.15777587890625 L596.4208984375,62.332618713378906 L596.2392578125,63.167747497558594 L596.2099609375,63.5787353515625 L596.333740234375,63.52632522583008 L596.60400390625,62.98666000366211 L597.04638671875,61.96571350097656 L597.6799926757812,60.56493377685547 L598.493896484375,58.939456939697266 L599.464111328125,57.28105926513672 L600.5324096679688,55.760311126708984 L601.63916015625,54.51071548461914 L602.726318359375,53.608699798583984 L603.7423095703125,53.114479064941406 L604.6220703125,53.0519905090332 L605.31982421875,53.42918014526367 L605.7835693359375,54.21323776245117 L605.9853515625,55.33938217163086 L605.9326171875,56.69173812866211 L605.6854858398438,58.115474700927734 L605.3255004882812,59.44852066040039 L604.96337890625,60.54403305053711 L604.70654296875,61.28105163574219 L604.6300659179688,61.56962585449219 L604.7889404296875,61.3639030456543 L605.218994140625,60.65361404418945 L605.931640625,59.505149841308594 L606.9217529296875,58.05290985107422 L608.1624755859375,56.46915054321289 L609.5809326171875,54.93362045288086 L611.0781860351562,53.61071014404297 L612.5205078125,52.599369049072266 L613.8041381835938,51.95753479003906 L614.8580932617188,51.71768569946289 L615.6527099609375,51.88578414916992 L616.199462890625,52.46976852416992 L616.5274047851562,53.4663200378418 L616.6436767578125,54.812896728515625 L616.5914306640625,56.403202056884766 L616.417236328125,58.09538650512695 L616.1927490234375,59.74905014038086 L616.0105590820312,61.28400802612305 L615.9102783203125,62.44750213623047 L615.8806762695312,63.15017318725586 " fill="none" stroke="black" stroke-linecap="round" stroke-width="1" /></svg>